<?xml version="1.0" encoding="utf-8"?>
<!-- Generator: Adobe Illustrator 17.0.0, SVG Export Plug-In . SVG Version: 6.00 Build 0)  -->
<!DOCTYPE svg PUBLIC "-//W3C//DTD SVG 1.1//EN" "http://www.w3.org/Graphics/SVG/1.1/DTD/svg11.dtd">
<svg version="1.1" id="Layer_1" xmlns="http://www.w3.org/2000/svg" xmlns:xlink="http://www.w3.org/1999/xlink" x="0px" y="0px"
	 width="50px" height="50px" viewBox="0 0 50 50" enable-background="new 0 0 50 50" xml:space="preserve">
<path fill="#575858" d="M0.819,8.072v26.653c0,3.174,6.797,4.834,13.512,4.834c2.866,0,5.624-0.3,7.893-0.85v2.739
	c0,3.174,6.797,4.834,13.512,4.834s13.512-1.661,13.512-4.834V20.126c0-3.174-6.797-4.834-13.512-4.834
	c-2.78,0-5.573,0.285-7.893,0.844V8.072c0-3.174-6.797-4.834-13.512-4.834S0.819,4.898,0.819,8.072z M2.37,26.44
	c2.389,1.62,7.196,2.457,11.961,2.457c2.855,0,5.624-0.301,7.893-0.851v3.732c-2.212,0.58-5,0.9-7.893,0.9
	c-7.301,0-11.961-1.945-11.961-3.284V26.44z M23.775,22.503c2.389,1.62,7.196,2.457,11.961,2.457c4.765,0,9.572-0.837,11.961-2.457
	v2.951c0,1.339-4.66,3.283-11.961,3.283c-7.302,0-11.961-1.945-11.961-3.283V22.503z M47.697,27.832v2.954
	c0,1.339-4.66,3.283-11.961,3.283c-7.302,0-11.961-1.945-11.961-3.283v-2.954c2.389,1.62,7.196,2.457,11.961,2.457
	C40.502,30.289,45.308,29.452,47.697,27.832z M47.697,36.116c0,1.339-4.66,3.283-11.961,3.283c-7.302,0-11.961-1.945-11.961-3.283
	v-2.954c2.389,1.62,7.196,2.457,11.961,2.457c4.765,0,9.572-0.837,11.961-2.457V36.116z M2.37,21.109
	c2.389,1.62,7.196,2.457,11.961,2.457c2.855,0,5.624-0.301,7.893-0.851v3.732c-2.212,0.58-5,0.9-7.893,0.9
	c-7.301,0-11.961-1.945-11.961-3.284V21.109z M2.37,10.449c2.389,1.62,7.196,2.457,11.961,2.457c4.765,0,9.572-0.837,11.961-2.457
	V13.4c0,1.339-4.66,3.283-11.961,3.283c-7.301,0-11.961-1.945-11.961-3.283V10.449z M26.292,8.072c0,1.339-4.66,3.283-11.961,3.283
	c-7.301,0-11.961-1.945-11.961-3.283c0-1.339,4.66-3.283,11.961-3.283C21.632,4.788,26.292,6.733,26.292,8.072z M26.292,16.575
	c-2.444,0.811-4.068,2-4.068,3.551v0.989c-2.212,0.58-5,0.9-7.893,0.9c-7.301,0-11.961-1.945-11.961-3.283v-2.954
	c2.389,1.62,7.196,2.457,11.961,2.457c4.765,0,9.572-0.837,11.961-2.457V16.575z M47.697,20.126c0,1.339-4.66,3.283-11.961,3.283
	c-7.302,0-11.961-1.945-11.961-3.283s4.66-3.283,11.961-3.283C43.038,16.843,47.697,18.787,47.697,20.126z M23.775,41.447v-2.954
	c2.389,1.62,7.196,2.457,11.961,2.457c4.765,0,9.572-0.837,11.961-2.457v2.954c0,1.339-4.66,3.284-11.961,3.284
	C28.435,44.731,23.775,42.786,23.775,41.447z M2.37,34.724v-2.954c2.389,1.62,7.196,2.457,11.961,2.457
	c2.855,0,5.624-0.301,7.893-0.851v3.732c-2.212,0.581-4.987,0.899-7.893,0.899C7.029,38.008,2.37,36.063,2.37,34.724z"/>
</svg>
