<?xml version="1.0" encoding="utf-8"?>
<!-- Generator: Adobe Illustrator 17.0.0, SVG Export Plug-In . SVG Version: 6.00 Build 0)  -->
<!DOCTYPE svg PUBLIC "-//W3C//DTD SVG 1.1//EN" "http://www.w3.org/Graphics/SVG/1.1/DTD/svg11.dtd">
<svg version="1.1" id="Layer_1" xmlns="http://www.w3.org/2000/svg" xmlns:xlink="http://www.w3.org/1999/xlink" x="0px" y="0px"
	 width="127px" height="42px" viewBox="0 0 127 42" enable-background="new 0 0 127 42" xml:space="preserve">
<g>
	<g display="none">
		<g display="inline">
			<defs>
				<rect id="SVGID_1_" x="1.586" y="2.389" width="125.658" height="37.242"/>
			</defs>
			<clipPath id="SVGID_2_">
				<use xlink:href="#SVGID_1_"  overflow="visible"/>
			</clipPath>
			<path clip-path="url(#SVGID_2_)" fill="#FFFFFF" d="M126.41,35.234c0,1.972-1.596,3.567-3.57,3.567H5.99
				c-1.974,0-3.574-1.595-3.574-3.567V6.789c0-1.97,1.601-3.571,3.574-3.571h116.849c1.975,0,3.57,1.601,3.57,3.571L126.41,35.234"
				/>
		</g>
		<g display="inline">
			<defs>
				<rect id="SVGID_3_" x="1.586" y="2.389" width="125.658" height="37.242"/>
			</defs>
			<clipPath id="SVGID_4_">
				<use xlink:href="#SVGID_3_"  overflow="visible"/>
			</clipPath>
			<path clip-path="url(#SVGID_4_)" fill="#A6A5A5" d="M122.84,39.631H5.99c-2.428,0-4.404-1.97-4.404-4.398V6.79
				c0-2.426,1.977-4.401,4.404-4.401h116.848c2.426,0,4.404,1.974,4.404,4.401v28.442C127.245,37.661,125.266,39.631,122.84,39.631"
				/>
		</g>
	</g>
	<path fill="#333333" d="M126.41,37.416c0,2.275-1.614,4.115-3.61,4.115H4.619c-1.996,0-3.615-1.84-3.615-4.115V4.608
		c0-2.272,1.619-4.119,3.615-4.119h118.18c1.997,0,3.61,1.847,3.61,4.119L126.41,37.416"/>
	<path fill="#FFFFFF" d="M29.644,20.815c-0.027-3.003,2.458-4.463,2.572-4.53c-1.407-2.054-3.588-2.333-4.355-2.355
		c-1.832-0.193-3.609,1.096-4.541,1.096c-0.953,0-2.389-1.077-3.937-1.047c-1.993,0.031-3.859,1.185-4.881,2.978
		c-2.111,3.653-0.536,9.021,1.486,11.975c1.011,1.447,2.193,3.062,3.74,3.005c1.514-0.062,2.079-0.965,3.905-0.965
		c1.809,0,2.34,0.965,3.918,0.927c1.623-0.024,2.646-1.453,3.623-2.912c1.169-1.655,1.638-3.291,1.656-3.376
		C32.793,25.602,29.677,24.412,29.644,20.815"/>
	<path fill="#FFFFFF" d="M26.664,11.988c0.813-1.018,1.371-2.403,1.216-3.808c-1.178,0.051-2.651,0.815-3.5,1.811
		c-0.75,0.876-1.42,2.314-1.248,3.667C24.456,13.755,25.815,12.989,26.664,11.988"/>
	<path fill="#FFFFFF" d="M51.564,31.729H49.45l-1.159-3.641h-4.026l-1.103,3.641h-2.06l3.99-12.394h2.465L51.564,31.729z
		 M47.942,26.562l-1.048-3.236c-0.11-0.331-0.32-1.11-0.625-2.336h-0.037c-0.123,0.528-0.32,1.306-0.588,2.336l-1.03,3.236H47.942z"
		/>
	<path fill="#FFFFFF" d="M61.807,27.151c0,1.519-0.412,2.721-1.239,3.603c-0.74,0.784-1.658,1.177-2.755,1.177
		c-1.183,0-2.035-0.422-2.552-1.268v4.69h-1.985v-9.622c0-0.958-0.025-1.935-0.074-2.939h1.746l0.111,1.417h0.037
		c0.663-1.067,1.667-1.601,3.015-1.601c1.055,0,1.936,0.416,2.639,1.248C61.454,24.693,61.807,25.79,61.807,27.151 M59.785,27.223
		c0-0.869-0.195-1.588-0.589-2.153c-0.429-0.587-1.006-0.881-1.729-0.881c-0.489,0-0.934,0.164-1.332,0.488
		c-0.399,0.325-0.659,0.751-0.781,1.279c-0.061,0.245-0.092,0.445-0.092,0.604v1.491c0,0.649,0.2,1.197,0.598,1.647
		c0.398,0.448,0.916,0.67,1.554,0.67c0.748,0,1.329-0.288,1.746-0.864C59.576,28.928,59.785,28.167,59.785,27.223"/>
	<path fill="#FFFFFF" d="M72.085,27.151c0,1.519-0.413,2.721-1.238,3.603c-0.74,0.784-1.66,1.177-2.757,1.177
		c-1.183,0-2.034-0.422-2.551-1.268v4.69h-1.986v-9.622c0-0.958-0.025-1.935-0.073-2.939h1.746l0.11,1.417h0.038
		c0.661-1.067,1.665-1.601,3.016-1.601c1.053,0,1.934,0.416,2.638,1.248C71.732,24.693,72.085,25.79,72.085,27.151 M70.062,27.223
		c0-0.869-0.196-1.588-0.589-2.153c-0.428-0.587-1.004-0.881-1.727-0.881c-0.491,0-0.935,0.164-1.334,0.488
		c-0.399,0.325-0.658,0.751-0.781,1.279c-0.061,0.245-0.093,0.445-0.093,0.604v1.491c0,0.649,0.2,1.197,0.598,1.647
		c0.4,0.445,0.916,0.67,1.554,0.67c0.749,0,1.332-0.288,1.746-0.864C69.853,28.928,70.062,28.167,70.062,27.223"/>
	<path fill="#FFFFFF" d="M83.578,28.253c0,1.056-0.368,1.912-1.101,2.576c-0.807,0.721-1.933,1.084-3.376,1.084
		c-1.335,0-2.403-0.256-3.211-0.772l0.459-1.655c0.87,0.516,1.828,0.774,2.869,0.774c0.749,0,1.331-0.17,1.746-0.507
		c0.417-0.336,0.626-0.787,0.626-1.35c0-0.503-0.173-0.925-0.515-1.268c-0.344-0.344-0.913-0.663-1.71-0.958
		c-2.171-0.808-3.256-1.993-3.256-3.55c0-1.017,0.382-1.849,1.149-2.498c0.765-0.651,1.78-0.976,3.043-0.976
		c1.128,0,2.067,0.196,2.813,0.589l-0.497,1.618c-0.703-0.38-1.496-0.571-2.382-0.571c-0.701,0-1.251,0.174-1.644,0.518
		c-0.329,0.304-0.498,0.678-0.498,1.121c0,0.489,0.192,0.896,0.57,1.213c0.331,0.294,0.931,0.614,1.802,0.958
		c1.067,0.43,1.851,0.93,2.353,1.506C83.326,26.679,83.578,27.396,83.578,28.253"/>
	<path fill="#FFFFFF" d="M90.16,24.282h-2.189v4.34c0,1.104,0.386,1.654,1.158,1.654c0.355,0,0.649-0.03,0.882-0.092l0.055,1.507
		c-0.391,0.147-0.907,0.22-1.544,0.22c-0.784,0-1.397-0.24-1.84-0.719c-0.441-0.478-0.662-1.281-0.662-2.409v-4.504h-1.302v-1.49
		h1.302v-1.637l1.95-0.588v2.226h2.189L90.16,24.282L90.16,24.282z"/>
	<path fill="#FFFFFF" d="M100.014,27.187c0,1.374-0.391,2.501-1.176,3.383c-0.82,0.908-1.911,1.361-3.272,1.361
		c-1.313,0-2.357-0.435-3.136-1.304c-0.779-0.872-1.168-1.968-1.168-3.292c0-1.384,0.402-2.519,1.204-3.402
		c0.803-0.881,1.885-1.322,3.246-1.322c1.312,0,2.364,0.435,3.162,1.305C99.635,24.761,100.014,25.85,100.014,27.187 M97.956,27.232
		c0-0.818-0.178-1.521-0.532-2.107c-0.416-0.71-1.012-1.066-1.784-1.066c-0.795,0-1.406,0.356-1.82,1.066
		c-0.357,0.586-0.533,1.301-0.533,2.145c0,0.818,0.176,1.524,0.533,2.108c0.429,0.711,1.029,1.066,1.804,1.066
		c0.758,0,1.354-0.364,1.785-1.082C97.772,28.761,97.956,28.053,97.956,27.232"/>
	<path fill="#FFFFFF" d="M106.471,24.539c-0.197-0.037-0.406-0.055-0.626-0.055c-0.698,0-1.238,0.263-1.618,0.791
		c-0.331,0.468-0.496,1.055-0.496,1.766v4.689h-1.986v-6.124c0-1.029-0.019-1.967-0.058-2.812h1.729l0.073,1.711h0.055
		c0.21-0.589,0.541-1.061,0.992-1.416c0.442-0.321,0.921-0.48,1.436-0.48c0.184,0,0.349,0.014,0.497,0.037L106.471,24.539z"/>
	<path fill="#FFFFFF" d="M115.351,26.838c0,0.356-0.023,0.656-0.072,0.899h-5.957c0.021,0.884,0.311,1.559,0.864,2.025
		c0.501,0.417,1.15,0.625,1.948,0.625c0.882,0,1.687-0.14,2.409-0.424l0.312,1.378c-0.846,0.369-1.844,0.551-2.997,0.551
		c-1.385,0-2.473-0.407-3.265-1.22c-0.789-0.815-1.185-1.91-1.185-3.281c0-1.348,0.366-2.469,1.103-3.366
		c0.772-0.955,1.813-1.433,3.125-1.433c1.288,0,2.263,0.477,2.925,1.433C115.088,24.784,115.351,25.723,115.351,26.838
		 M113.458,26.323c0.014-0.589-0.116-1.096-0.385-1.526c-0.345-0.553-0.873-0.828-1.582-0.828c-0.649,0-1.177,0.268-1.58,0.809
		c-0.33,0.429-0.527,0.946-0.587,1.546h4.134V26.323z"/>
	<path fill="#FFFFFF" d="M46.989,14.9h-1.037l-0.569-1.788h-1.979L42.862,14.9h-1.011l1.961-6.088h1.21L46.989,14.9z M45.211,12.362
		l-0.515-1.591c-0.056-0.162-0.156-0.544-0.308-1.147H44.37c-0.06,0.258-0.157,0.642-0.288,1.147l-0.506,1.591H45.211z"/>
	<path fill="#FFFFFF" d="M51.886,10.509l-1.662,4.39h-0.949l-1.608-4.39h1.048l0.75,2.322c0.126,0.385,0.232,0.757,0.316,1.111
		h0.026c0.072-0.319,0.177-0.689,0.317-1.111l0.739-2.322C50.863,10.509,51.886,10.509,51.886,10.509z"/>
	<path fill="#FFFFFF" d="M56.314,14.899h-0.877l-0.073-0.506h-0.027c-0.3,0.403-0.728,0.605-1.282,0.605
		c-0.416,0-0.751-0.134-1.004-0.397c-0.228-0.241-0.342-0.539-0.342-0.894c0-0.536,0.223-0.945,0.673-1.228
		c0.448-0.284,1.08-0.422,1.892-0.415v-0.083c0-0.577-0.304-0.867-0.912-0.867c-0.433,0-0.815,0.109-1.148,0.325l-0.198-0.64
		c0.408-0.252,0.912-0.379,1.509-0.379c1.151,0,1.725,0.606,1.725,1.816v1.617C56.25,14.291,56.271,14.64,56.314,14.899
		 M55.302,13.391v-0.678c-1.078-0.018-1.617,0.277-1.617,0.886c0,0.229,0.062,0.4,0.189,0.515c0.126,0.114,0.285,0.17,0.476,0.17
		c0.215,0,0.415-0.068,0.598-0.203c0.183-0.136,0.295-0.308,0.336-0.519L55.302,13.391z"/>
	<path fill="#FFFFFF" d="M59.034,9.199c0,0.176-0.058,0.316-0.174,0.426c-0.114,0.109-0.261,0.162-0.442,0.162
		c-0.163,0-0.299-0.055-0.41-0.165C57.897,9.509,57.84,9.369,57.84,9.2c0-0.169,0.058-0.308,0.172-0.415
		c0.114-0.109,0.256-0.163,0.425-0.163c0.168,0,0.309,0.054,0.424,0.163C58.975,8.892,59.034,9.031,59.034,9.199 M58.923,14.899
		h-0.975v-4.39h0.975V14.899z"/>
	<rect x="60.658" y="8.495" fill="#FFFFFF" width="0.975" height="6.404"/>
	<path fill="#FFFFFF" d="M66.665,14.899h-0.877l-0.071-0.506h-0.025c-0.303,0.403-0.729,0.605-1.284,0.605
		c-0.415,0-0.749-0.134-1.003-0.397c-0.229-0.241-0.344-0.539-0.344-0.894c0-0.536,0.225-0.945,0.673-1.228
		c0.449-0.284,1.079-0.422,1.892-0.415v-0.083c0-0.577-0.304-0.867-0.912-0.867c-0.435,0-0.816,0.109-1.147,0.325l-0.199-0.64
		c0.409-0.252,0.912-0.379,1.508-0.379c1.151,0,1.725,0.606,1.725,1.816v1.617C66.601,14.291,66.623,14.64,66.665,14.899
		 M65.653,13.391v-0.678c-1.079-0.018-1.617,0.277-1.617,0.886c0,0.229,0.062,0.4,0.188,0.515c0.126,0.114,0.285,0.17,0.476,0.17
		c0.215,0,0.414-0.068,0.597-0.203c0.181-0.136,0.295-0.308,0.336-0.519L65.653,13.391z"/>
	<path fill="#FFFFFF" d="M72.491,12.641c0,0.741-0.204,1.331-0.613,1.77c-0.362,0.391-0.803,0.587-1.329,0.587
		c-0.627,0-1.087-0.258-1.382-0.776h-0.018L69.096,14.9h-0.832c0.023-0.355,0.035-0.75,0.035-1.183V8.496h0.976v2.655
		c0.29-0.488,0.759-0.732,1.408-0.732c0.533,0,0.967,0.203,1.303,0.611C72.324,11.434,72.491,11.974,72.491,12.641 M71.5,12.677
		c0-0.428-0.097-0.776-0.291-1.048c-0.211-0.295-0.497-0.443-0.859-0.443c-0.241,0-0.457,0.079-0.649,0.235
		c-0.193,0.157-0.322,0.364-0.387,0.624c-0.025,0.102-0.036,0.204-0.036,0.306v0.767c0,0.303,0.098,0.561,0.3,0.777
		c0.203,0.216,0.454,0.325,0.756,0.325c0.367,0,0.652-0.137,0.858-0.415C71.396,13.53,71.5,13.154,71.5,12.677"/>
	<rect x="73.937" y="8.495" fill="#FFFFFF" width="0.977" height="6.404"/>
	<path fill="#FFFFFF" d="M80.261,12.497c0,0.176-0.014,0.322-0.037,0.442h-2.927c0.012,0.435,0.153,0.765,0.423,0.993
		c0.249,0.206,0.566,0.308,0.959,0.308c0.433,0,0.828-0.069,1.182-0.208l0.152,0.679c-0.415,0.18-0.905,0.27-1.471,0.27
		c-0.68,0-1.215-0.2-1.604-0.6c-0.388-0.401-0.582-0.938-0.582-1.613c0-0.661,0.179-1.213,0.543-1.653
		c0.379-0.468,0.89-0.704,1.534-0.704c0.632,0,1.11,0.236,1.437,0.704C80.131,11.488,80.261,11.949,80.261,12.497 M79.33,12.244
		c0.005-0.289-0.057-0.539-0.189-0.75c-0.171-0.27-0.428-0.407-0.778-0.407c-0.32,0-0.578,0.132-0.779,0.397
		c-0.162,0.212-0.256,0.464-0.287,0.759L79.33,12.244L79.33,12.244z"/>
	<path fill="#FFFFFF" d="M88.328,12.668c0,0.676-0.193,1.229-0.579,1.662c-0.404,0.446-0.94,0.669-1.608,0.669
		c-0.644,0-1.158-0.214-1.54-0.642c-0.382-0.427-0.573-0.966-0.573-1.617c0-0.68,0.197-1.238,0.593-1.671
		c0.394-0.432,0.925-0.649,1.593-0.649c0.644,0,1.163,0.214,1.555,0.641C88.141,11.476,88.328,12.012,88.328,12.668 M87.315,12.691
		c0-0.402-0.087-0.747-0.262-1.036c-0.205-0.348-0.495-0.521-0.874-0.521c-0.392,0-0.691,0.173-0.895,0.521
		c-0.176,0.289-0.263,0.64-0.263,1.054c0,0.404,0.089,0.748,0.263,1.036c0.212,0.348,0.506,0.523,0.886,0.523
		c0.371,0,0.664-0.177,0.873-0.531C87.226,13.442,87.315,13.094,87.315,12.691"/>
	<path fill="#FFFFFF" d="M93.586,14.9H92.61v-2.521c0-0.777-0.295-1.165-0.886-1.165c-0.29,0-0.522,0.107-0.704,0.321
		c-0.182,0.213-0.27,0.465-0.27,0.753v2.61h-0.977v-3.135c0-0.387-0.012-0.805-0.035-1.257h0.858l0.045,0.678h0.027
		c0.114-0.21,0.283-0.385,0.506-0.523c0.265-0.163,0.559-0.244,0.884-0.244c0.41,0,0.752,0.133,1.022,0.399
		c0.338,0.324,0.506,0.81,0.506,1.454V14.9z"/>
	<path fill="#FFFFFF" d="M99.971,11.241h-1.073v2.133c0,0.542,0.188,0.812,0.568,0.812c0.175,0,0.32-0.014,0.432-0.046l0.028,0.742
		c-0.192,0.073-0.446,0.109-0.759,0.109c-0.385,0-0.684-0.118-0.902-0.352c-0.217-0.236-0.327-0.63-0.327-1.185v-2.213h-0.642V10.51
		h0.642V9.705l0.957-0.289v1.092h1.076C99.971,10.508,99.971,11.241,99.971,11.241z"/>
	<path fill="#FFFFFF" d="M105.129,14.9h-0.976v-2.503c0-0.789-0.296-1.183-0.885-1.183c-0.451,0-0.762,0.229-0.931,0.687
		c-0.03,0.097-0.046,0.214-0.046,0.352V14.9h-0.975V8.496h0.975v2.637h0.018c0.307-0.476,0.749-0.713,1.318-0.713
		c0.406,0,0.738,0.132,1.005,0.397c0.33,0.331,0.496,0.823,0.496,1.472L105.129,14.9L105.129,14.9z"/>
	<path fill="#FFFFFF" d="M110.153,12.497c0,0.176-0.012,0.322-0.037,0.442h-2.926c0.011,0.435,0.153,0.765,0.423,0.993
		c0.247,0.206,0.566,0.308,0.956,0.308c0.434,0,0.83-0.069,1.182-0.208l0.154,0.679c-0.415,0.18-0.907,0.27-1.473,0.27
		c-0.679,0-1.214-0.2-1.604-0.6c-0.388-0.401-0.582-0.938-0.582-1.613c0-0.661,0.18-1.213,0.542-1.653
		c0.379-0.468,0.891-0.704,1.534-0.704c0.634,0,1.113,0.236,1.438,0.704C110.022,11.488,110.153,11.949,110.153,12.497
		 M109.222,12.244c0.006-0.289-0.058-0.539-0.189-0.75c-0.17-0.27-0.428-0.407-0.777-0.407c-0.32,0-0.578,0.132-0.777,0.397
		c-0.163,0.212-0.258,0.464-0.288,0.759L109.222,12.244L109.222,12.244z"/>
</g>
</svg>
