<?xml version="1.0" encoding="utf-8"?>
<!-- Generator: Adobe Illustrator 17.0.0, SVG Export Plug-In . SVG Version: 6.00 Build 0)  -->
<!DOCTYPE svg PUBLIC "-//W3C//DTD SVG 1.1//EN" "http://www.w3.org/Graphics/SVG/1.1/DTD/svg11.dtd">
<svg version="1.1" id="Layer_1" xmlns="http://www.w3.org/2000/svg" xmlns:xlink="http://www.w3.org/1999/xlink" x="0px" y="0px"
	 width="69px" height="69px" viewBox="0 0 69 69" enable-background="new 0 0 69 69" xml:space="preserve">
<g>
	<path fill="#868686" d="M61.87,13.921c0-5.243-8.14-9.355-18.533-9.355c-8.653,0-15.864,2.805-17.95,6.972l-0.125,0.242l0.275-0.01
		c0.493-0.028,1.017-0.044,1.606-0.05h0.08l0.048-0.064c2.265-3.189,8.869-5.421,16.064-5.421c9.139,0,16.863,3.519,16.863,7.685
		c0,3.671-6.297,7.011-14.328,7.595l-0.152,0.01v1.676l0.173-0.01c6.399-0.428,11.696-2.401,14.307-5.313v2.459
		c0,2.682,0,8.951-14.328,9.578l-0.152,0.011v1.67l0.167-0.011c7.173-0.314,11.984-2.064,14.313-5.205v1.789
		c0,2.676,0,8.945-14.328,9.572l-0.152,0.006v1.676l0.167-0.011c7.173-0.307,11.984-2.064,14.313-5.205v1.789
		c0,2.682,0,8.956-14.328,9.578l-0.152,0.006v1.67l0.167-0.006c7.173-0.313,11.984-2.064,14.313-5.204v2.405
		c0,2.697,0,9.02-14.588,9.583l-0.119,0.005l-0.026,0.119c-0.108,0.464-0.249,0.919-0.428,1.345l-0.097,0.227l0.249-0.006
		C61.87,55.215,61.87,47.389,61.87,44.443v-6.578h-0.086c0.086-0.74,0.086-1.384,0.086-1.871v-6.577h-0.026
		c0.026-0.493,0.026-0.924,0.026-1.249v-6.42l-0.032-0.125c0.032-0.504,0.032-0.952,0.032-1.281V13.921z M61.87,13.921"/>
	<path fill="#868686" d="M25.533,13.067c-10.394,0-18.534,4.108-18.534,9.356v6.42c0,0.379,0.006,0.785,0.037,1.249H6.999v6.578
		c0,0.378,0.006,0.789,0.037,1.248H6.999v6.578c0,0.476,0,1.119,0.097,1.865H6.999v6.582c0,2.871,0,11.621,18.657,11.621
		c18.404,0,18.404-8.449,18.404-11.621v-6.582h-0.08c0.08-0.731,0.08-1.378,0.08-1.865v-6.578h-0.026
		c0.026-0.486,0.026-0.924,0.026-1.248v-6.578h-0.026c0.026-0.493,0.026-0.924,0.026-1.249v-6.42
		C44.061,17.176,35.92,13.067,25.533,13.067L25.533,13.067z M25.533,30.105c-9.141,0-16.859-3.519-16.859-7.681
		c0-4.168,7.718-7.681,16.859-7.681c9.134,0,16.857,3.513,16.857,7.681C42.39,26.586,34.667,30.105,25.533,30.105L25.533,30.105z
		 M25.656,38.476c-16.982,0-16.982-6.999-16.982-9.632V26.38c2.957,3.292,9.496,5.4,16.859,5.4c7.356,0,13.896-2.109,16.857-5.4
		v2.464C42.39,31.726,42.39,38.476,25.656,38.476L25.656,38.476z M25.656,46.303c-16.982,0-16.982-7-16.982-9.632v-1.936
		c2.632,3.589,8.345,5.41,16.982,5.41c8.519,0,14.145-1.772,16.734-5.263v1.789C42.39,39.552,42.39,46.303,25.656,46.303
		L25.656,46.303z M25.656,54.129c-16.982,0-16.982-6.994-16.982-9.632v-1.934c2.632,3.593,8.345,5.41,16.982,5.41
		c8.519,0,14.145-1.768,16.734-5.259v1.784C42.39,47.378,42.39,54.129,25.656,54.129L25.656,54.129z M25.656,62.896
		c-16.982,0-16.982-7.232-16.982-9.951v-2.556c2.632,3.589,8.345,5.416,16.982,5.416c8.519,0,14.145-1.772,16.734-5.265v2.405
		C42.39,55.924,42.39,62.896,25.656,62.896L25.656,62.896z M25.656,62.896"/>
</g>
</svg>
