<?xml version="1.0" encoding="utf-8"?>
<!-- Generator: Adobe Illustrator 17.0.0, SVG Export Plug-In . SVG Version: 6.00 Build 0)  -->
<!DOCTYPE svg PUBLIC "-//W3C//DTD SVG 1.1//EN" "http://www.w3.org/Graphics/SVG/1.1/DTD/svg11.dtd">
<svg version="1.1" id="Layer_1" xmlns="http://www.w3.org/2000/svg" xmlns:xlink="http://www.w3.org/1999/xlink" x="0px" y="0px"
	 width="72px" height="68px" viewBox="0 0 72 68" enable-background="new 0 0 72 68" xml:space="preserve">
<g>
	<path fill="#FFFFFF" d="M65.625,12.613c-0.231-0.26-0.56-0.408-0.907-0.408H13.702l-0.605-5.036
		c-0.417-3.462-3.36-6.072-6.846-6.072H3.817c-0.669,0-1.212,0.543-1.212,1.212c0,0.669,0.543,1.212,1.212,1.212h2.433
		c2.26,0,4.169,1.692,4.439,3.937l4.933,40.996c0.434,3.601,3.496,6.318,7.124,6.318h4.723l-0.516,0.977
		c-0.388-0.096-0.795-0.148-1.213-0.148c-2.78,0-5.042,2.262-5.042,5.042c0,2.78,2.262,5.042,5.042,5.042s5.042-2.262,5.042-5.042
		c0-1.492-0.653-2.836-1.687-3.76l1.115-2.111h25.012l-0.516,0.977c-0.389-0.096-0.795-0.148-1.214-0.148
		c-2.78,0-5.042,2.262-5.042,5.042c0,2.78,2.262,5.042,5.042,5.042s5.043-2.262,5.043-5.042c0-1.492-0.653-2.836-1.687-3.76
		l1.115-2.111h1.009c0.669,0,1.212-0.543,1.212-1.212c0-0.67-0.543-1.212-1.212-1.212H22.746c-2.402,0-4.429-1.799-4.716-4.183
		l-0.671-5.575h43.995c0.614,0,1.131-0.458,1.204-1.068l3.364-27.96C65.963,13.217,65.855,12.871,65.625,12.613L65.625,12.613z
		 M28.358,60.643c0,1.443-1.174,2.618-2.618,2.618c-1.444,0-2.618-1.174-2.618-2.618c0-1.444,1.174-2.618,2.618-2.618
		c0.004,0,0.007,0,0.011,0l-1.083,2.052c-0.313,0.592-0.086,1.325,0.506,1.638c0.181,0.096,0.374,0.141,0.565,0.141
		c0.435,0,0.855-0.235,1.073-0.647l1.083-2.05C28.186,59.581,28.358,60.092,28.358,60.643L28.358,60.643z M56.112,60.643
		c0,1.443-1.174,2.618-2.618,2.618c-1.443,0-2.619-1.174-2.619-2.618c0-1.444,1.175-2.618,2.619-2.618c0.003,0,0.007,0,0.011,0
		l-1.084,2.052c-0.312,0.592-0.086,1.325,0.506,1.638c0.181,0.096,0.374,0.141,0.565,0.141c0.436,0,0.856-0.235,1.073-0.647
		l1.082-2.05C55.94,59.581,56.112,60.092,56.112,60.643L56.112,60.643z M33.832,14.629h9.681l-0.718,25.536H34.55L33.832,14.629z
		 M32.125,40.165h-7.007l-1.989-25.536h8.278L32.125,40.165z M45.939,14.629h8.277l-1.988,25.536H45.22L45.939,14.629z
		 M13.994,14.629h6.703l1.989,25.536h-5.619L13.994,14.629z M60.278,40.165h-5.618l1.989-25.536h6.703L60.278,40.165z
		 M60.278,40.165"/>
</g>
</svg>
