<?xml version="1.0" encoding="iso-8859-1"?>
<!-- Generator: Adobe Illustrator 19.0.0, SVG Export Plug-In . SVG Version: 6.00 Build 0)  -->
<svg version="1.1" id="Layer_1" xmlns="http://www.w3.org/2000/svg" xmlns:xlink="http://www.w3.org/1999/xlink" x="0px" y="0px"
	 viewBox="0 0 512.001 512.001" style="enable-background:new 0 0 512.001 512.001;" xml:space="preserve">
<path style="fill:#FFD76E;" d="M237.687,506.286H37.492c-10.114,0-18.314-8.2-18.314-18.314v-63.487
	c0-10.114,8.2-18.314,18.314-18.314h200.195c10.114,0,18.314,8.2,18.314,18.314v63.487
	C256.001,498.087,247.801,506.286,237.687,506.286z"/>
<g>
	<path style="fill:#FFC339;" d="M237.687,406.172H137.59v100.114h100.097c10.114,0,18.314-8.2,18.314-18.314v-63.487
		C256.001,414.37,247.801,406.172,237.687,406.172z"/>
	<path style="fill:#FFC339;" d="M237.687,406.172H37.492c-10.114,0-18.314-8.2-18.314-18.314v-63.487
		c0-10.114,8.2-18.314,18.314-18.314h200.195c10.114,0,18.314,8.2,18.314,18.314v63.487
		C256.001,397.972,247.801,406.172,237.687,406.172z"/>
</g>
<path style="fill:#FFB61C;" d="M237.687,306.058H137.59v100.114h100.097c10.114,0,18.314-8.2,18.314-18.314v-63.487
	C256.001,314.256,247.801,306.058,237.687,306.058z"/>
<path style="fill:#FFD76E;" d="M237.687,306.058H37.492c-10.114,0-18.314-8.2-18.314-18.314v-63.487
	c0-10.114,8.2-18.314,18.314-18.314h200.195c10.114,0,18.314,8.2,18.314,18.314v63.487
	C256.001,297.858,247.801,306.058,237.687,306.058z"/>
<path style="fill:#FFC339;" d="M474.508,506.286H274.314c-10.114,0-18.314-8.2-18.314-18.314v-63.487
	c0-10.114,8.2-18.314,18.314-18.314H474.51c10.114,0,18.314,8.2,18.314,18.314v63.487
	C492.822,498.087,484.624,506.286,474.508,506.286z"/>
<path style="fill:#FFB61C;" d="M474.508,406.172H374.411v100.114h100.097c10.114,0,18.314-8.2,18.314-18.314v-63.487
	C492.822,414.37,484.624,406.172,474.508,406.172z"/>
<path style="fill:#FFD76E;" d="M474.508,406.172H274.314c-10.114,0-18.314-8.2-18.314-18.314v-63.487
	c0-10.114,8.2-18.314,18.314-18.314H474.51c10.114,0,18.314,8.2,18.314,18.314v63.487
	C492.822,397.972,484.624,406.172,474.508,406.172z"/>
<g>
	<path style="fill:#FFC339;" d="M474.508,306.058H274.314c-10.114,0-18.314-8.2-18.314-18.314v-63.487
		c0-10.114,8.2-18.314,18.314-18.314H474.51c10.114,0,18.314,8.2,18.314,18.314v63.487
		C492.822,297.858,484.624,306.058,474.508,306.058z"/>
	<path style="fill:#FFC339;" d="M237.687,205.944H37.492c-10.114,0-18.314-8.2-18.314-18.314v-63.487
		c0-10.114,8.2-18.314,18.314-18.314h200.195c10.114,0,18.314,8.2,18.314,18.314v63.487
		C256.001,197.744,247.801,205.944,237.687,205.944z"/>
</g>
<path style="fill:#FFD76E;" d="M237.687,105.829H37.492c-10.114,0-18.314-8.2-18.314-18.314V24.029
	c0-10.114,8.2-18.314,18.314-18.314h200.195c10.114,0,18.314,8.2,18.314,18.314v63.487
	C256.001,97.63,247.801,105.829,237.687,105.829z"/>
<path style="fill:#48AEE2;" d="M493.686,506.286H18.314C8.2,506.286,0,498.087,0,487.973c0-10.114,8.2-18.314,18.314-18.314h475.373
	c10.114,0,18.314,8.2,18.314,18.314C512,498.087,503.802,506.286,493.686,506.286z"/>
<path style="fill:#4390CB;" d="M493.686,469.659H256.001v36.627h237.687c10.114,0,18.314-8.2,18.314-18.314
	C512.001,477.859,503.802,469.659,493.686,469.659z"/>
<path style="fill:#FFC339;" d="M237.687,205.944H137.59v100.114h100.097c10.114,0,18.314-8.2,18.314-18.314v-63.487
	C256.001,214.142,247.801,205.944,237.687,205.944z"/>
<path style="fill:#FFB61C;" d="M237.687,105.829H137.59v100.114h100.097c10.114,0,18.314-8.2,18.314-18.314v-63.487
	C256.001,114.028,247.801,105.829,237.687,105.829z"/>
<path style="fill:#FFC339;" d="M237.687,5.715H137.59v100.114h100.097c10.114,0,18.314-8.2,18.314-18.314V24.029
	C256.001,13.913,247.801,5.715,237.687,5.715z"/>
<path style="fill:#FFB61C;" d="M474.508,205.944H374.411v100.114h100.097c10.114,0,18.314-8.2,18.314-18.314v-63.487
	C492.822,214.142,484.624,205.944,474.508,205.944z"/>
<path style="fill:#FFC339;" d="M474.508,306.058H374.411v100.114h100.097c10.114,0,18.314-8.2,18.314-18.314v-63.487
	C492.822,314.256,484.624,306.058,474.508,306.058z"/>
<g>
</g>
<g>
</g>
<g>
</g>
<g>
</g>
<g>
</g>
<g>
</g>
<g>
</g>
<g>
</g>
<g>
</g>
<g>
</g>
<g>
</g>
<g>
</g>
<g>
</g>
<g>
</g>
<g>
</g>
</svg>
