<?xml version="1.0" encoding="iso-8859-1"?>
<!-- Generator: Adobe Illustrator 19.0.0, SVG Export Plug-In . SVG Version: 6.00 Build 0)  -->
<svg version="1.1" id="Layer_1" xmlns="http://www.w3.org/2000/svg" xmlns:xlink="http://www.w3.org/1999/xlink" x="0px" y="0px"
	 viewBox="0 0 512 512" style="enable-background:new 0 0 512 512;" xml:space="preserve">
<path style="fill:#FFB32D;" d="M256,0v131.88l97.746-34.133C353.746,43.759,309.988,0,256,0z"/>
<path style="fill:#FFDB70;" d="M158.254,97.746L256,131.88V0C202.012,0,158.254,43.759,158.254,97.746z"/>
<path style="fill:#FECC33;" d="M256,0c35.135,0,63.613,43.759,63.613,97.746L256,131.88l-63.613-34.133
	C192.387,43.759,220.865,0,256,0z"/>
<rect x="122.129" y="97.746" style="fill:#FFEAAD;" width="267.742" height="191.147"/>
<path style="fill:#FFB32D;" d="M256,157.013v131.88l97.746-34.133C353.746,200.772,309.988,157.013,256,157.013z"/>
<path style="fill:#FFDB70;" d="M158.254,254.76L256,288.893v-131.88C202.012,157.013,158.254,200.772,158.254,254.76z"/>
<g>
	<path style="fill:#FECC33;" d="M256,157.013c35.135,0,63.613,43.759,63.613,97.746L256,288.893l-63.613-34.133
		C192.387,200.772,220.865,157.013,256,157.013z"/>
	<polygon style="fill:#FECC33;" points="500.622,416.62 477.867,512 317.065,512 317.065,346.943 	"/>
</g>
<polygon style="fill:#FFB32D;" points="455.111,371.109 317.065,403.831 317.065,437.965 477.867,437.965 477.867,512 512,512 
	512,403.831 "/>
<polygon style="fill:#FECC33;" points="194.935,346.943 194.935,512 34.133,512 11.378,416.62 "/>
<polygon style="fill:#FFDB70;" points="194.935,403.831 56.889,371.109 0,403.831 0,512 34.133,512 34.133,437.965 194.935,437.965 
	"/>
<path style="fill:#FFB32D;" d="M61.065,193.695v83.82l61.065-22.756C122.129,221.036,94.788,193.695,61.065,193.695z"/>
<path style="fill:#FECC33;" d="M61.065,193.695c21.151,0,38.309,27.341,38.309,61.065l-38.309,22.756L0,254.76
	C0,221.036,27.341,193.695,61.065,193.695z"/>
<path style="fill:#FFB32D;" d="M450.935,193.695v83.82l-61.065-22.756C389.871,221.036,417.212,193.695,450.935,193.695z"/>
<path style="fill:#FECC33;" d="M450.935,193.695c-21.151,0-38.309,27.341-38.309,61.065l38.309,22.756L512,254.76
	C512,221.036,484.659,193.695,450.935,193.695z"/>
<path style="fill:#FF9926;" d="M17.067,107.725v158.413L0,254.76V107.725c0-4.71,3.823-8.533,8.533-8.533
	S17.067,103.014,17.067,107.725z"/>
<polygon style="fill:#FFB32D;" points="34.133,254.76 0,254.76 0,403.831 34.133,403.831 56.889,329.296 "/>
<path style="fill:#FF642E;" d="M494.933,107.725v158.413L512,254.76V107.725c0-4.71-3.823-8.533-8.533-8.533
	S494.933,103.014,494.933,107.725z"/>
<polygon style="fill:#FF7A23;" points="477.867,254.76 512,254.76 512,403.831 477.867,403.831 455.111,329.296 "/>
<polygon style="fill:#FF9926;" points="477.867,254.76 477.867,403.831 317.065,403.831 256,354.145 194.935,403.831 
	34.133,403.831 34.133,254.76 "/>
<path style="fill:#FF642E;" d="M317.065,403.831H194.935c0-33.724,27.341-61.065,61.065-61.065S317.065,370.108,317.065,403.831z"/>
<g>
</g>
<g>
</g>
<g>
</g>
<g>
</g>
<g>
</g>
<g>
</g>
<g>
</g>
<g>
</g>
<g>
</g>
<g>
</g>
<g>
</g>
<g>
</g>
<g>
</g>
<g>
</g>
<g>
</g>
</svg>
