<svg x="0" y="0" width="700" height="350" viewBox="0 0 700 350" xmlns="http://www.w3.org/2000/svg" xmlns:xlink="http://www.w3.org/1999/xlink" xmlns:fi="http://pattern.flaticon.com/"><rect x="0px" y="0px" width="100%" height="100%" opacity="1" fill="#ffffff"/><defs><g transform="matrix(0.11781176179647446 0 0 0.11781176179647446 37 24)" id="L1_0"><circle cx="254" cy="254" r="254" fill="#fefff2"/><rect x="58px" y="211px" width="391px" height="265px" fill="#f5ea0a"/><path d="M254.644,32.551 58.66,211.242 254.644,390.273 450.628,211.242z" fill="#f8b517"/><path d="M104.095,252.609 250.236,386.204 259.052,386.204 405.192,252.609 405.192,86.803   104.095,86.803z" fill="#fcfcfd"/><rect x="150px" y="132px" width="207px" height="14px" fill="#71d456"/><g><rect x="150px" y="171px" width="207px" height="14px" fill="#f1f3f7"/><rect x="150px" y="214px" width="207px" height="14px" fill="#f1f3f7"/><rect x="150px" y="258px" width="207px" height="14px" fill="#f1f3f7"/><path d="M352.636,300.758 156.652,300.758 172.249,315.338 337.038,315.338z" fill="#f1f3f7"/><path d="M305.505,343.82 203.783,343.82 219.38,358.061 289.907,358.061z" fill="#f1f3f7"/></g><path d="M287.534,359.078 221.754,359.078 58.66,476.736 450.628,476.736z" fill="#fbd303"/></g></defs><g fi:class="KUsePattern"><pattern id="pattern_L1_0" width="350" height="350" patternUnits="userSpaceOnUse"><use xlink:href="#L1_0" x="-350" y="-350"/><use xlink:href="#L1_0" x="0" y="-350"/><use xlink:href="#L1_0" x="350" y="-350"/><use xlink:href="#L1_0" x="-350" y="0"/><use xlink:href="#L1_0" x="0" y="0"/><use xlink:href="#L1_0" x="350" y="0"/><use xlink:href="#L1_0" x="-350" y="350"/><use xlink:href="#L1_0" x="0" y="350"/><use xlink:href="#L1_0" x="350" y="350"/></pattern><rect x="0" y="0" width="100%" height="100%" fill="url(#pattern_L1_0)"/></g></svg>