<?xml version="1.0" encoding="utf-8"?>
<!-- Generator: Adobe Illustrator 17.0.0, SVG Export Plug-In . SVG Version: 6.00 Build 0)  -->
<!DOCTYPE svg PUBLIC "-//W3C//DTD SVG 1.1//EN" "http://www.w3.org/Graphics/SVG/1.1/DTD/svg11.dtd">
<svg version="1.1" id="Layer_1" xmlns="http://www.w3.org/2000/svg" xmlns:xlink="http://www.w3.org/1999/xlink" x="0px" y="0px"
	 width="40px" height="40px" viewBox="0 0 40 40" enable-background="new 0 0 40 40" xml:space="preserve">
<g>
	<g>
		<defs>
			<rect id="SVGID_1_" x="0.026" y="0.83" width="39.949" height="38.21"/>
		</defs>
		<clipPath id="SVGID_2_">
			<use xlink:href="#SVGID_1_"  overflow="visible"/>
		</clipPath>
		<path clip-path="url(#SVGID_2_)" fill="#088C45" d="M38.339,16.641c-0.519-0.538-1.087-0.854-1.602-1.039
			c0.705-4.101,0.576-6.392-16.104-11.643C3.66-1.385,1.761,0.829,0.362,5.27L0.124,6.028C-0.254,7.23,0.413,8.511,1.615,8.889
			l5.446,1.714c1.202,0.378,2.483-0.289,2.861-1.491l0.239-0.758c1.083-3.44,6.384-1.887,9.386-0.942
			c3.003,0.945,8.237,2.709,7.154,6.149l-0.239,0.758c-0.378,1.202,0.289,2.483,1.491,2.861l5.446,1.714
			c1.202,0.379,2.483-0.289,2.861-1.491l0.155-0.525c0.322,0.133,0.668,0.336,0.987,0.667c1.146,1.187,1.526,3.481,1.1,6.633
			c-0.74,5.462-2.886,7.413-5.172,8.062v-0.95c0-0.965-0.241-1.92-0.73-2.754c-2.281-3.904-5.521-7.369-9.637-10.422v-2.307
			c0-0.179-0.147-0.326-0.326-0.326H19.25c-0.183,0-0.326,0.147-0.326,0.326v2.294h-3.865v-2.294c0-0.179-0.147-0.326-0.326-0.326
			h-3.39c-0.179,0-0.326,0.147-0.326,0.326v2.294c-4.123,3.06-7.365,6.525-9.65,10.435c-0.489,0.834-0.73,1.789-0.73,2.754v2.148
			c0,3.06,2.48,5.54,5.54,5.54h21.611c3.012,0,5.457-2.404,5.533-5.398c3.664-0.858,5.742-3.847,6.471-9.227
			C40.283,20.741,39.794,18.146,38.339,16.641L38.339,16.641z M22.645,31.349l-2.175-0.774c0.231-0.465,0.364-0.987,0.364-1.541
			c0-1.916-1.555-3.471-3.474-3.471c-1.916,0-3.474,1.555-3.474,3.471c0,1.92,1.558,3.474,3.474,3.474
			c0.71,0,1.369-0.213,1.919-0.579l1.193,1.961c-0.899,0.577-1.965,0.916-3.111,0.916c-3.187,0-5.769-2.585-5.769-5.772
			c0-3.184,2.581-5.769,5.769-5.769c3.187,0,5.772,2.584,5.772,5.769C23.131,29.857,22.956,30.639,22.645,31.349L22.645,31.349z
			 M22.645,31.349"/>
	</g>
</g>
</svg>
