<?xml version="1.0" encoding="utf-8"?>
<!-- Generator: Adobe Illustrator 17.0.0, SVG Export Plug-In . SVG Version: 6.00 Build 0)  -->
<!DOCTYPE svg PUBLIC "-//W3C//DTD SVG 1.1//EN" "http://www.w3.org/Graphics/SVG/1.1/DTD/svg11.dtd">
<svg version="1.1" id="Layer_1" xmlns="http://www.w3.org/2000/svg" xmlns:xlink="http://www.w3.org/1999/xlink" x="0px" y="0px"
	 width="50px" height="50px" viewBox="0 0 50 50" enable-background="new 0 0 50 50" xml:space="preserve">
<g>
	<path fill="#575858" d="M6.846,12.103c0.363-0.166,0.52-0.594,0.356-0.956c-0.166-0.359-0.591-0.521-0.953-0.356
		c-0.499,0.229-0.963,0.528-1.382,0.889c-0.299,0.26-0.33,0.714-0.07,1.013c0.14,0.166,0.341,0.25,0.545,0.25
		c0.166,0,0.334-0.057,0.472-0.176C6.123,12.497,6.47,12.272,6.846,12.103L6.846,12.103z M6.846,12.103"/>
	<path fill="#575858" d="M9.361,11.712h1.442c0.397,0,0.721-0.32,0.721-0.72c0-0.398-0.324-0.717-0.721-0.717H9.361
		c-0.397,0-0.721,0.32-0.721,0.717C8.64,11.393,8.964,11.712,9.361,11.712L9.361,11.712z M9.361,11.712"/>
	<path fill="#575858" d="M13.682,11.712h1.442c0.397,0,0.717-0.32,0.717-0.72c0-0.398-0.32-0.717-0.717-0.717h-1.442
		c-0.397,0-0.721,0.32-0.721,0.717C12.961,11.393,13.285,11.712,13.682,11.712L13.682,11.712z M13.682,11.712"/>
	<path fill="#575858" d="M10.803,20.356H9.361c-0.397,0-0.721,0.32-0.721,0.721c0,0.397,0.324,0.717,0.721,0.717h1.442
		c0.397,0,0.721-0.32,0.721-0.717C11.524,20.675,11.2,20.356,10.803,20.356L10.803,20.356z M10.803,20.356"/>
	<path fill="#575858" d="M19.442,20.356h-1.438c-0.398,0-0.721,0.32-0.721,0.721c0,0.397,0.323,0.717,0.721,0.717h1.438
		c0.401,0,0.721-0.32,0.721-0.717C20.163,20.675,19.843,20.356,19.442,20.356L19.442,20.356z M19.442,20.356"/>
	<path fill="#575858" d="M15.125,20.356h-1.442c-0.397,0-0.721,0.32-0.721,0.721c0,0.397,0.324,0.717,0.721,0.717h1.442
		c0.397,0,0.717-0.32,0.717-0.717C15.841,20.675,15.522,20.356,15.125,20.356L15.125,20.356z M15.125,20.356"/>
	<path fill="#575858" d="M6.846,19.965c-0.373-0.172-0.721-0.393-1.033-0.664c-0.299-0.26-0.756-0.229-1.016,0.07
		c-0.26,0.302-0.229,0.756,0.074,1.016c0.415,0.363,0.879,0.662,1.378,0.887c0.095,0.045,0.197,0.067,0.299,0.067
		c0.271,0,0.535-0.155,0.654-0.419C7.367,20.56,7.209,20.131,6.846,19.965L6.846,19.965z M6.846,19.965"/>
	<path fill="#575858" d="M23.764,20.356h-1.438c-0.401,0-0.721,0.32-0.721,0.721c0,0.397,0.32,0.717,0.721,0.717h1.438
		c0.398,0,0.721-0.32,0.721-0.717C24.485,20.675,24.161,20.356,23.764,20.356L23.764,20.356z M23.764,20.356"/>
	<path fill="#575858" d="M36.729,20.356h-1.442c-0.397,0-0.721,0.32-0.721,0.721c0,0.397,0.324,0.717,0.721,0.717h1.442
		c0.397,0,0.717-0.32,0.717-0.717C37.445,20.675,37.126,20.356,36.729,20.356L36.729,20.356z M36.729,20.356"/>
	<path fill="#575858" d="M41.046,20.356h-1.438c-0.398,0-0.721,0.32-0.721,0.721c0,0.397,0.323,0.717,0.721,0.717h1.438
		c0.401,0,0.721-0.32,0.721-0.717C41.767,20.675,41.448,20.356,41.046,20.356L41.046,20.356z M41.046,20.356"/>
	<path fill="#575858" d="M28.085,20.356h-1.442c-0.397,0-0.717,0.32-0.717,0.721c0,0.397,0.32,0.717,0.717,0.717h1.442
		c0.397,0,0.721-0.32,0.721-0.717C28.806,20.675,28.482,20.356,28.085,20.356L28.085,20.356z M28.085,20.356"/>
	<path fill="#575858" d="M32.407,20.356h-1.442c-0.397,0-0.721,0.32-0.721,0.721c0,0.397,0.324,0.717,0.721,0.717h1.442
		c0.397,0,0.721-0.32,0.721-0.717C33.128,20.675,32.804,20.356,32.407,20.356L32.407,20.356z M32.407,20.356"/>
	<path fill="#575858" d="M6.846,41.569c-0.373-0.172-0.721-0.393-1.033-0.664c-0.299-0.26-0.756-0.229-1.016,0.07
		c-0.26,0.302-0.229,0.756,0.074,1.016c0.415,0.363,0.879,0.662,1.378,0.887c0.095,0.045,0.197,0.067,0.299,0.067
		c0.271,0,0.535-0.155,0.654-0.419C7.367,42.164,7.209,41.735,6.846,41.569L6.846,41.569z M6.846,41.569"/>
	<path fill="#575858" d="M15.125,41.96h-1.442c-0.397,0-0.721,0.32-0.721,0.721c0,0.397,0.324,0.717,0.721,0.717h1.442
		c0.397,0,0.717-0.32,0.717-0.717C15.841,42.28,15.522,41.96,15.125,41.96L15.125,41.96z M15.125,41.96"/>
	<path fill="#575858" d="M10.803,41.96H9.361c-0.397,0-0.721,0.32-0.721,0.721c0,0.397,0.324,0.717,0.721,0.717h1.442
		c0.397,0,0.721-0.32,0.721-0.717C11.524,42.28,11.2,41.96,10.803,41.96L10.803,41.96z M10.803,41.96"/>
	<path fill="#575858" d="M28.085,41.96h-1.442c-0.397,0-0.717,0.32-0.717,0.721c0,0.397,0.32,0.717,0.717,0.717h1.442
		c0.397,0,0.721-0.32,0.721-0.717C28.806,42.28,28.482,41.96,28.085,41.96L28.085,41.96z M28.085,41.96"/>
	<path fill="#575858" d="M30.244,42.681c0,0.397,0.324,0.717,0.721,0.717h1.442c0.397,0,0.721-0.32,0.721-0.717
		c0-0.401-0.324-0.721-0.721-0.721h-1.442C30.568,41.96,30.244,42.28,30.244,42.681L30.244,42.681z M30.244,42.681"/>
	<path fill="#575858" d="M35.287,43.398h1.442c0.397,0,0.717-0.32,0.717-0.717c0-0.401-0.32-0.721-0.717-0.721h-1.442
		c-0.397,0-0.721,0.32-0.721,0.721C34.566,43.078,34.89,43.398,35.287,43.398L35.287,43.398z M35.287,43.398"/>
	<path fill="#575858" d="M23.764,41.96h-1.438c-0.401,0-0.721,0.32-0.721,0.721c0,0.397,0.32,0.717,0.721,0.717h1.438
		c0.398,0,0.721-0.32,0.721-0.717C24.485,42.28,24.161,41.96,23.764,41.96L23.764,41.96z M23.764,41.96"/>
	<path fill="#575858" d="M39.609,43.398h1.438c0.401,0,0.721-0.32,0.721-0.717c0-0.401-0.32-0.721-0.721-0.721h-1.438
		c-0.398,0-0.721,0.32-0.721,0.721C38.888,43.078,39.211,43.398,39.609,43.398L39.609,43.398z M39.609,43.398"/>
	<path fill="#575858" d="M19.442,41.96h-1.438c-0.398,0-0.721,0.32-0.721,0.721c0,0.397,0.323,0.717,0.721,0.717h1.438
		c0.401,0,0.721-0.32,0.721-0.717C20.163,42.28,19.843,41.96,19.442,41.96L19.442,41.96z M19.442,41.96"/>
	<path fill="#575858" d="M34.566,31.158c0,1.59,1.294,2.88,2.88,2.88c1.59,0,2.884-1.29,2.884-2.88c0-1.59-1.294-2.88-2.884-2.88
		C35.86,28.278,34.566,29.568,34.566,31.158L34.566,31.158z M37.445,29.716c0.795,0,1.442,0.647,1.442,1.442
		c0,0.795-0.647,1.438-1.442,1.438c-0.79,0-1.438-0.644-1.438-1.438C36.008,30.363,36.655,29.716,37.445,29.716L37.445,29.716z
		 M37.445,29.716"/>
	<path fill="#575858" d="M33.806,7.391l-3.917-3.914c-0.317-0.32-0.841-0.32-1.157,0l-1.474,1.474l-1.474-1.474
		c-0.32-0.32-0.84-0.32-1.16,0l-3.913,3.914H8.64c-3.175,0-5.759,2.584-5.759,5.763V41.13c0,2.837,2.31,5.152,5.152,5.152h38.057
		V7.391H33.806z M29.312,4.936l12.54,12.54h-3.885L29.854,9.36c-0.306-0.295-0.78-0.295-1.094,0.007l-8.105,8.109h-3.882
		L28.275,5.971L29.312,4.936z M35.934,17.476H22.691l6.621-6.622L35.934,17.476z M25.206,4.936l1.033,1.034L14.734,17.476h-2.068
		L22.747,7.391L25.206,4.936z M8.64,8.832h10.63l-1.484,1.484c-0.219,0.07-0.383,0.235-0.454,0.456l-6.703,6.703H8.64
		c-2.38,0-4.317-1.941-4.317-4.322C4.322,10.771,6.26,8.832,8.64,8.832L8.64,8.832z M44.647,34.759h-7.918
		c-1.987,0-3.601-1.618-3.601-3.601c0-1.987,1.614-3.601,3.601-3.601h7.918V34.759z M44.647,20.356H43.93
		c-0.401,0-0.721,0.32-0.721,0.721c0,0.397,0.32,0.717,0.721,0.717h0.717v4.321h-7.918c-2.782,0-5.043,2.261-5.043,5.043
		c0,2.778,2.261,5.039,5.043,5.039h7.918v5.763H43.93c-0.401,0-0.721,0.32-0.721,0.721c0,0.397,0.32,0.717,0.721,0.717h0.717v1.441
		H8.032c-2.047,0-3.71-1.663-3.71-3.71v-1.589c0.165-0.18,0.246-0.433,0.172-0.686c-0.116-0.394-0.172-0.802-0.172-1.217V17.937
		c0.165-0.18,0.246-0.433,0.172-0.686c-0.014-0.046-0.018-0.095-0.032-0.14c0.067,0.067,0.13,0.133,0.197,0.2
		c0.063,0.06,0.126,0.116,0.193,0.173c0.081,0.07,0.162,0.14,0.247,0.203c0.067,0.057,0.137,0.105,0.207,0.155
		c0.088,0.063,0.176,0.123,0.267,0.179c0.074,0.046,0.144,0.092,0.221,0.134c0.095,0.056,0.19,0.105,0.289,0.155
		c0.077,0.039,0.151,0.077,0.228,0.113c0.106,0.045,0.208,0.084,0.313,0.122c0.077,0.032,0.155,0.06,0.236,0.088
		c0.112,0.035,0.229,0.063,0.345,0.095c0.074,0.022,0.151,0.042,0.229,0.06c0.13,0.028,0.26,0.046,0.393,0.067
		c0.067,0.007,0.134,0.021,0.201,0.028c0.2,0.022,0.404,0.035,0.611,0.035h36.007V20.356z M43.888,17.476l-5.764-5.764h0.042
		c0.398,0,0.721-0.32,0.721-0.72c0-0.398-0.323-0.717-0.721-0.717h-1.438c-0.014,0-0.025,0.004-0.036,0.007l-1.448-1.449h9.402
		v8.644H43.888z M43.888,17.476"/>
	<path fill="#575858" d="M42.488,10.275h-1.442c-0.397,0-0.717,0.32-0.717,0.717c0,0.401,0.32,0.72,0.717,0.72h1.442
		c0.397,0,0.721-0.32,0.721-0.72C43.209,10.594,42.885,10.275,42.488,10.275L42.488,10.275z M42.488,10.275"/>
</g>
</svg>
