<?xml version="1.0" encoding="utf-8"?>
<!-- Generator: Adobe Illustrator 17.0.0, SVG Export Plug-In . SVG Version: 6.00 Build 0)  -->
<!DOCTYPE svg PUBLIC "-//W3C//DTD SVG 1.1//EN" "http://www.w3.org/Graphics/SVG/1.1/DTD/svg11.dtd">
<svg version="1.1" id="Layer_1" xmlns="http://www.w3.org/2000/svg" xmlns:xlink="http://www.w3.org/1999/xlink" x="0px" y="0px"
	 width="50px" height="50px" viewBox="0 0 50 50" enable-background="new 0 0 50 50" xml:space="preserve">
<g>
	<path fill="#575858" d="M43.429,14.1h-1.997v-2.664c0-0.4-0.267-0.667-0.667-0.667H22.777V5.442c0-0.401-0.266-0.667-0.663-0.667
		H4.793c-0.401,0-0.667,0.266-0.667,0.667v38.636c0,0.401,0.266,0.667,0.667,0.667h7.991V43.41H5.46V6.109h15.987V14.1H9.454v1.334
		h33.308v7.329h1.334v-7.996C44.096,14.368,43.829,14.1,43.429,14.1L43.429,14.1z M22.777,14.1v-1.997h17.321V14.1H22.777z
		 M22.777,14.1"/>
	<rect x="7.457" y="17.431" fill="#575858" width="1.334" height="1.334"/>
	<rect x="10.121" y="17.431" fill="#575858" width="1.334" height="1.334"/>
	<rect x="12.784" y="17.431" fill="#575858" width="1.334" height="1.334"/>
	<rect x="7.457" y="40.08" fill="#575858" width="1.334" height="1.334"/>
	<rect x="10.121" y="40.08" fill="#575858" width="1.334" height="1.334"/>
	<rect x="15.452" y="17.431" fill="#575858" width="1.331" height="1.334"/>
	<rect x="18.116" y="17.431" fill="#575858" width="1.331" height="1.334"/>
	<rect x="20.78" y="17.431" fill="#575858" width="1.334" height="1.334"/>
	<rect x="23.444" y="17.431" fill="#575858" width="1.334" height="1.334"/>
	<rect x="26.108" y="17.431" fill="#575858" width="1.334" height="1.334"/>
	<rect x="28.776" y="17.431" fill="#575858" width="1.331" height="1.334"/>
	<rect x="31.439" y="17.431" fill="#575858" width="1.331" height="1.334"/>
	<rect x="34.103" y="17.431" fill="#575858" width="1.334" height="1.334"/>
	<rect x="36.767" y="17.431" fill="#575858" width="1.334" height="1.334"/>
	<rect x="39.431" y="17.431" fill="#575858" width="1.334" height="1.334"/>
	<path fill="#575858" d="M43.429,24.76h-9.325c-0.4,0-0.667,0.266-0.667,0.667v9.992h-7.991v-2.001c0-0.396-0.267-0.663-0.667-0.663
		h-9.325c-0.401,0-0.667,0.266-0.667,0.663v10.659c0,0.401,0.266,0.667,0.667,0.667h27.976c0.401,0,0.667-0.266,0.667-0.667V25.427
		C44.096,25.026,43.829,24.76,43.429,24.76L43.429,24.76z M24.111,38.083h-7.996v-1.334h7.996V38.083z M16.115,39.417h7.996v1.33
		h-7.996V39.417z M25.445,39.417h7.991v1.33h-7.991V39.417z M42.762,30.087H34.77v-1.33h7.991V30.087z M42.762,32.755H34.77v-1.334
		h7.991V32.755z M34.77,34.085h7.991v1.334H34.77V34.085z M42.762,36.749v1.334H34.77v-1.334H42.762z M34.77,39.417h7.991v1.33
		H34.77V39.417z M34.77,26.094h7.991v1.33H34.77V26.094z M33.436,38.083h-7.991v-1.334h7.991V38.083z M16.115,34.085h7.996v1.334
		h-7.996V34.085z M16.115,42.081h7.996v1.33h-7.996V42.081z M25.445,42.081h7.991v1.33h-7.991V42.081z M42.762,43.41H34.77v-1.33
		h7.991V43.41z M42.762,43.41"/>
	<path fill="#575858" d="M27.907,28.556l0.869-0.865v5.727h1.33v-5.727l0.865,0.865l0.933-0.931l-1.997-2
		c-0.266-0.266-0.667-0.266-0.933,0l-1.998,2L27.907,28.556z M27.907,28.556"/>
	<path fill="#575858" d="M18.581,24.561l0.865-0.869v7.061h1.334v-7.061l0.865,0.869l0.933-0.933l-1.997-2.001
		c-0.267-0.263-0.667-0.263-0.933,0l-2.001,2.001L18.581,24.561z M18.581,24.561"/>
</g>
</svg>
