<?xml version="1.0" encoding="utf-8"?>
<!-- Generator: Adobe Illustrator 17.0.0, SVG Export Plug-In . SVG Version: 6.00 Build 0)  -->
<!DOCTYPE svg PUBLIC "-//W3C//DTD SVG 1.1//EN" "http://www.w3.org/Graphics/SVG/1.1/DTD/svg11.dtd">
<svg version="1.1" id="Layer_1" xmlns="http://www.w3.org/2000/svg" xmlns:xlink="http://www.w3.org/1999/xlink" x="0px" y="0px"
	 width="72px" height="68px" viewBox="0 0 72 68" enable-background="new 0 0 72 68" xml:space="preserve">
<g>
	<path fill="#FFFFFF" d="M65.719,2.407H5.904c-3.016,0-5.47,2.454-5.47,5.47v35.445c0,3.016,2.454,5.47,5.47,5.47h22.154
		c0.573,0,1.038-0.465,1.038-1.038c0-0.573-0.465-1.038-1.038-1.038H5.904c-1.871,0-3.393-1.522-3.393-3.393V7.876
		c0-1.871,1.522-3.393,3.393-3.393h59.815c1.871,0,3.393,1.522,3.393,3.393v35.445c0,0.574,0.465,1.038,1.038,1.038
		c0.573,0,1.038-0.464,1.038-1.038V7.876C71.189,4.86,68.735,2.407,65.719,2.407L65.719,2.407z M65.719,2.407"/>
	<path fill="#FFFFFF" d="M29.165,38.96H9.227c-0.573,0-1.038,0.465-1.038,1.038c0,0.573,0.465,1.038,1.038,1.038h19.938
		c0.573,0,1.038-0.465,1.038-1.038C30.204,39.425,29.739,38.96,29.165,38.96L29.165,38.96z M29.165,38.96"/>
	<path fill="#FFFFFF" d="M21.342,20.06v-4.431c0-1.794-1.46-3.253-3.254-3.253h-6.646c-1.794,0-3.254,1.46-3.254,3.253v4.431
		c0,1.794,1.46,3.254,3.254,3.254h6.646C19.883,23.314,21.342,21.855,21.342,20.06L21.342,20.06z M10.265,20.06v-1.177h1.177
		c0.573,0,1.038-0.465,1.038-1.038c0-0.573-0.465-1.038-1.038-1.038h-1.177v-1.177c0-0.648,0.528-1.176,1.177-1.176h2.284v6.784
		h-2.284C10.794,21.237,10.265,20.709,10.265,20.06L10.265,20.06z M18.088,21.237h-2.284v-6.784h2.284
		c0.649,0,1.177,0.528,1.177,1.176v1.177h-1.177c-0.573,0-1.038,0.465-1.038,1.038c0,0.573,0.465,1.038,1.038,1.038h1.177v1.177
		C19.265,20.709,18.737,21.237,18.088,21.237L18.088,21.237z M18.088,21.237"/>
	<path fill="#FFFFFF" d="M8.189,33.353c0,0.573,0.465,1.038,1.038,1.038c0.573,0,1.038-0.465,1.038-1.038v-2.216
		c0-0.573-0.465-1.038-1.038-1.038c-0.573,0-1.038,0.465-1.038,1.038V33.353z M8.189,33.353"/>
	<path fill="#FFFFFF" d="M11.511,31.137v2.216c0,0.573,0.465,1.038,1.038,1.038c0.573,0,1.038-0.465,1.038-1.038v-2.216
		c0-0.573-0.465-1.038-1.038-1.038C11.977,30.099,11.511,30.564,11.511,31.137L11.511,31.137z M11.511,31.137"/>
	<path fill="#FFFFFF" d="M14.834,31.137v2.216c0,0.573,0.465,1.038,1.038,1.038c0.573,0,1.038-0.465,1.038-1.038v-2.216
		c0-0.573-0.465-1.038-1.038-1.038C15.3,30.099,14.834,30.564,14.834,31.137L14.834,31.137z M14.834,31.137"/>
	<path fill="#FFFFFF" d="M18.157,31.137v2.216c0,0.573,0.465,1.038,1.038,1.038c0.574,0,1.038-0.465,1.038-1.038v-2.216
		c0-0.573-0.464-1.038-1.038-1.038C18.622,30.099,18.157,30.564,18.157,31.137L18.157,31.137z M18.157,31.137"/>
	<path fill="#FFFFFF" d="M24.665,33.353v-2.216c0-0.573-0.465-1.038-1.038-1.038s-1.038,0.465-1.038,1.038v2.216
		c0,0.573,0.465,1.038,1.038,1.038S24.665,33.926,24.665,33.353L24.665,33.353z M24.665,33.353"/>
	<path fill="#FFFFFF" d="M27.988,33.353v-2.216c0-0.573-0.465-1.038-1.038-1.038c-0.573,0-1.038,0.465-1.038,1.038v2.216
		c0,0.573,0.465,1.038,1.038,1.038C27.523,34.391,27.988,33.926,27.988,33.353L27.988,33.353z M27.988,33.353"/>
	<path fill="#FFFFFF" d="M30.273,30.099c-0.573,0-1.038,0.465-1.038,1.038v2.216c0,0.573,0.465,1.038,1.038,1.038
		c0.574,0,1.038-0.465,1.038-1.038v-2.216C31.311,30.564,30.847,30.099,30.273,30.099L30.273,30.099z M30.273,30.099"/>
	<path fill="#FFFFFF" d="M34.635,33.353v-2.216c0-0.573-0.465-1.038-1.038-1.038c-0.574,0-1.038,0.465-1.038,1.038v2.216
		c0,0.573,0.464,1.038,1.038,1.038C34.17,34.391,34.635,33.926,34.635,33.353L34.635,33.353z M34.635,33.353"/>
	<path fill="#FFFFFF" d="M57.965,23.314c3.016,0,5.47-2.454,5.47-5.47c0-3.015-2.454-5.469-5.47-5.469h-6.646
		c-3.016,0-5.47,2.453-5.47,5.469c0,3.016,2.454,5.47,5.47,5.47H57.965z M47.926,17.845c0-1.87,1.522-3.392,3.393-3.392h6.646
		c1.871,0,3.393,1.522,3.393,3.392c0,1.871-1.522,3.393-3.393,3.393h-6.646C49.448,21.237,47.926,19.716,47.926,17.845
		L47.926,17.845z M47.926,17.845"/>
	<path fill="#FFFFFF" d="M49.104,30.099c-9.734,0-17.654,7.92-17.654,17.654s7.92,17.654,17.654,17.654s17.654-7.92,17.654-17.654
		S58.838,30.099,49.104,30.099L49.104,30.099z M49.104,63.33c-8.589,0-15.577-6.988-15.577-15.577s6.988-15.577,15.577-15.577
		c8.59,0,15.577,6.988,15.577,15.577S57.693,63.33,49.104,63.33L49.104,63.33z M49.104,63.33"/>
	<path fill="#FFFFFF" d="M58.339,41.48L45.781,54.038l-5.912-5.912c-0.406-0.406-1.064-0.406-1.469,0
		c-0.406,0.406-0.406,1.064,0,1.469l6.646,6.646c0.203,0.203,0.469,0.304,0.734,0.304c0.266,0,0.531-0.101,0.734-0.304
		l13.292-13.292c0.406-0.406,0.406-1.063,0-1.468C59.402,41.074,58.744,41.074,58.339,41.48L58.339,41.48z M58.339,41.48"/>
</g>
<g>
	<path fill="#088C45" d="M65.625,12.613c-0.231-0.26-0.56-0.408-0.907-0.408H13.702l-0.605-5.036
		c-0.417-3.462-3.36-6.072-6.846-6.072H3.817c-0.669,0-1.212,0.543-1.212,1.212c0,0.669,0.543,1.212,1.212,1.212h2.433
		c2.26,0,4.169,1.692,4.439,3.937l4.933,40.996c0.434,3.601,3.496,6.318,7.124,6.318h4.723l-0.516,0.977
		c-0.388-0.096-0.795-0.148-1.213-0.148c-2.78,0-5.042,2.262-5.042,5.042c0,2.78,2.262,5.042,5.042,5.042s5.042-2.262,5.042-5.042
		c0-1.492-0.653-2.836-1.687-3.76l1.115-2.111h25.012l-0.516,0.977c-0.389-0.096-0.795-0.148-1.214-0.148
		c-2.78,0-5.042,2.262-5.042,5.042c0,2.78,2.262,5.042,5.042,5.042s5.043-2.262,5.043-5.042c0-1.492-0.653-2.836-1.687-3.76
		l1.115-2.111h1.009c0.669,0,1.212-0.543,1.212-1.212c0-0.67-0.543-1.212-1.212-1.212H22.746c-2.402,0-4.429-1.799-4.716-4.183
		l-0.671-5.575h43.995c0.614,0,1.131-0.458,1.204-1.068l3.364-27.96C65.963,13.217,65.855,12.871,65.625,12.613L65.625,12.613z
		 M28.358,60.643c0,1.443-1.174,2.618-2.618,2.618c-1.444,0-2.618-1.174-2.618-2.618c0-1.444,1.174-2.618,2.618-2.618
		c0.004,0,0.007,0,0.011,0l-1.083,2.052c-0.313,0.592-0.086,1.325,0.506,1.638c0.181,0.096,0.374,0.141,0.565,0.141
		c0.435,0,0.855-0.235,1.073-0.647l1.083-2.05C28.186,59.581,28.358,60.092,28.358,60.643L28.358,60.643z M56.112,60.643
		c0,1.443-1.174,2.618-2.618,2.618c-1.443,0-2.619-1.174-2.619-2.618c0-1.444,1.175-2.618,2.619-2.618c0.003,0,0.007,0,0.011,0
		l-1.084,2.052c-0.312,0.592-0.086,1.325,0.506,1.638c0.181,0.096,0.374,0.141,0.565,0.141c0.436,0,0.856-0.235,1.073-0.647
		l1.082-2.05C55.94,59.581,56.112,60.092,56.112,60.643L56.112,60.643z M33.832,14.629h9.681l-0.718,25.536H34.55L33.832,14.629z
		 M32.125,40.165h-7.007l-1.989-25.536h8.278L32.125,40.165z M45.939,14.629h8.277l-1.988,25.536H45.22L45.939,14.629z
		 M13.994,14.629h6.703l1.989,25.536h-5.619L13.994,14.629z M60.278,40.165h-5.618l1.989-25.536h6.703L60.278,40.165z
		 M60.278,40.165"/>
</g>
</svg>
