<?xml version="1.0" encoding="utf-8"?>
<!-- Generator: Adobe Illustrator 17.0.0, SVG Export Plug-In . SVG Version: 6.00 Build 0)  -->
<!DOCTYPE svg PUBLIC "-//W3C//DTD SVG 1.1//EN" "http://www.w3.org/Graphics/SVG/1.1/DTD/svg11.dtd">
<svg version="1.1" id="Layer_1" xmlns="http://www.w3.org/2000/svg" xmlns:xlink="http://www.w3.org/1999/xlink" x="0px" y="0px"
	 width="69px" height="69px" viewBox="0 0 69 69" enable-background="new 0 0 69 69" xml:space="preserve">
<g>
	<path fill="#868686" d="M58.295,11.881C52.068,6.543,43.798,3.603,35.01,3.603s-17.057,2.94-23.285,8.278
		c-6.275,5.378-9.73,12.543-9.73,20.174c0,4.041,0.964,7.946,2.865,11.606c1.712,3.298,4.103,6.244,7.111,8.768
		c-1.307,3.26-3.15,6.957-4.175,8.952c-0.398,0.775-0.314,1.682,0.22,2.369c0.427,0.549,1.061,0.853,1.731,0.853
		c0.168,0,0.338-0.019,0.507-0.058c3.262-0.753,9.463-2.436,14.848-5.35c3.212,0.87,6.542,1.311,9.909,1.311
		c8.789,0,17.058-2.94,23.286-8.278c6.274-5.378,9.73-12.543,9.73-20.174C68.025,24.423,64.57,17.259,58.295,11.881L58.295,11.881z
		 M35.01,58.367c-3.317,0-6.598-0.453-9.75-1.347c-0.272-0.077-0.565-0.043-0.812,0.094c-5.242,2.917-11.444,4.602-14.675,5.347
		c-0.022,0.006-0.042,0.01-0.069-0.024c-0.027-0.035-0.016-0.058-0.006-0.077c1.37-2.665,3.273-6.542,4.551-9.882
		c0.167-0.434,0.033-0.928-0.331-1.219c-3.062-2.444-5.471-5.332-7.16-8.583c-1.741-3.352-2.624-6.925-2.624-10.62
		c0-14.509,13.851-26.313,30.876-26.313s30.876,11.804,30.876,26.313C65.886,46.564,52.035,58.367,35.01,58.367L35.01,58.367z
		 M35.01,58.367"/>
	<path fill="#868686" d="M35.01,47.1c-1.14,0-2.067,0.928-2.067,2.068c0,1.14,0.928,2.067,2.067,2.067
		c1.141,0,2.068-0.928,2.068-2.067C37.078,48.028,36.151,47.1,35.01,47.1L35.01,47.1z M35.01,47.1"/>
	<path fill="#868686" d="M35.01,15.012c-8.139,0-14.761,5.598-14.761,12.479c0,1.937,0.51,3.792,1.514,5.516
		c0.297,0.511,0.952,0.683,1.463,0.386c0.51-0.297,0.682-0.952,0.385-1.462c-0.811-1.393-1.223-2.886-1.223-4.439
		c0-5.701,5.662-10.34,12.622-10.34s12.622,4.639,12.622,10.34c0,2.454-1.072,4.836-3.02,6.705
		c-1.973,1.893-4.701,3.143-7.682,3.516c-1.704,0.214-2.99,1.644-2.99,3.326v2.426c0,0.59,0.479,1.07,1.07,1.07
		c0.591,0,1.07-0.479,1.07-1.07v-2.426c0-0.616,0.469-1.123,1.116-1.204c3.435-0.43,6.595-1.884,8.897-4.095
		c2.371-2.276,3.678-5.205,3.678-8.248C49.771,20.61,43.149,15.012,35.01,15.012L35.01,15.012z M35.01,15.012"/>
</g>
</svg>
