<?xml version="1.0" encoding="utf-8"?>
<!-- Generator: Adobe Illustrator 17.0.0, SVG Export Plug-In . SVG Version: 6.00 Build 0)  -->
<!DOCTYPE svg PUBLIC "-//W3C//DTD SVG 1.1//EN" "http://www.w3.org/Graphics/SVG/1.1/DTD/svg11.dtd">
<svg version="1.1" id="Layer_1" xmlns="http://www.w3.org/2000/svg" xmlns:xlink="http://www.w3.org/1999/xlink" x="0px" y="0px"
	 width="127px" height="42px" viewBox="0 0 127 42" enable-background="new 0 0 127 42" xml:space="preserve">
<g>
	<path fill="#333333" d="M126.264,35.707c0,3.063-2.482,5.547-5.542,5.547H6.402c-3.061,0-5.544-2.484-5.544-5.547V5.758
		c0-3.063,2.482-5.546,5.544-5.546h114.32c3.061,0,5.542,2.484,5.542,5.546V35.707z"/>
	<g id="PLAY">
		<defs>
			<path id="SVGID_1_" d="M27.786,19.14l-4.184-2.416c0,0-7.622-4.401-8.07-4.66c-0.448-0.259-0.895-0.102-0.895,0.439
				c0,0.901,0,9.397,0,9.397s0,9.182,0,9.588c0,0.405,0.319,0.58,0.708,0.355c0.389-0.225,8.257-4.768,8.257-4.768l4.184-2.415
				c0,0,3.55-2.049,4.022-2.322c0.472-0.273,0.427-0.646,0.028-0.861S27.786,19.14,27.786,19.14z"/>
		</defs>
		<clipPath id="SVGID_2_">
			<use xlink:href="#SVGID_1_"  overflow="visible"/>
		</clipPath>
		<polygon clip-path="url(#SVGID_2_)" fill="#FFFFFF" points="14.637,11.623 14.637,21.9 14.637,32.178 25.002,21.901 		"/>
		<polygon clip-path="url(#SVGID_2_)" fill="#FFFFFF" points="27.786,19.14 23.602,16.724 14.637,11.548 14.637,11.623 
			25.002,21.901 		"/>
		<polygon clip-path="url(#SVGID_2_)" fill="#FFFFFF" points="14.637,32.178 14.637,32.253 23.602,27.076 27.786,24.661 
			25.002,21.901 		"/>
		<polygon clip-path="url(#SVGID_2_)" fill="#FFFFFF" points="27.786,19.14 25.002,21.901 27.786,24.661 32.567,21.9 		"/>
	</g>
	<g>
		<path fill="#FFFFFF" d="M98.822,27.245c-0.519,0-0.993-0.096-1.422-0.287c-0.429-0.191-0.789-0.486-1.08-0.884h-0.087
			c0.058,0.465,0.087,0.907,0.087,1.324v3.28h-1.207V19.127h0.982l0.167,1.091h0.058c0.311-0.437,0.672-0.752,1.084-0.946
			c0.412-0.194,0.885-0.291,1.418-0.291c1.057,0,1.873,0.361,2.448,1.084c0.575,0.723,0.862,1.736,0.862,3.041
			c0,1.309-0.292,2.326-0.876,3.052C100.672,26.883,99.861,27.245,98.822,27.245z M98.648,20.007c-0.815,0-1.404,0.226-1.767,0.676
			c-0.364,0.451-0.551,1.169-0.56,2.153v0.269c0,1.12,0.187,1.922,0.56,2.404c0.374,0.482,0.972,0.724,1.796,0.724
			c0.689,0,1.229-0.279,1.619-0.836c0.39-0.557,0.585-1.326,0.585-2.306c0-0.994-0.195-1.757-0.585-2.288
			C99.906,20.273,99.356,20.007,98.648,20.007z"/>
		<path fill="#FFFFFF" d="M104.928,27.099h-1.207V15.781h1.207V27.099z"/>
		<path fill="#FFFFFF" d="M111.87,27.099l-0.24-1.135h-0.058c-0.398,0.5-0.794,0.838-1.189,1.015
			c-0.395,0.177-0.889,0.266-1.48,0.266c-0.79,0-1.41-0.204-1.859-0.611c-0.449-0.407-0.673-0.986-0.673-1.738
			c0-1.61,1.288-2.454,3.862-2.531l1.353-0.044v-0.495c0-0.626-0.135-1.088-0.404-1.386c-0.269-0.299-0.7-0.448-1.291-0.448
			c-0.665,0-1.416,0.204-2.255,0.611l-0.371-0.924c0.393-0.213,0.823-0.381,1.291-0.502c0.468-0.121,0.937-0.182,1.407-0.182
			c0.95,0,1.655,0.211,2.113,0.633c0.458,0.422,0.687,1.098,0.687,2.029v5.441H111.87z M109.142,26.249
			c0.751,0,1.342-0.206,1.771-0.618c0.429-0.412,0.644-0.989,0.644-1.732v-0.72l-1.208,0.051c-0.96,0.034-1.652,0.183-2.077,0.448
			c-0.424,0.264-0.636,0.675-0.636,1.233c0,0.436,0.132,0.769,0.396,0.996C108.297,26.135,108.667,26.249,109.142,26.249z"/>
		<path fill="#FFFFFF" d="M113.466,19.127h1.294l1.746,4.546c0.383,1.038,0.621,1.787,0.713,2.248h0.058
			c0.063-0.248,0.195-0.671,0.396-1.27c0.201-0.599,0.86-2.44,1.975-5.524h1.295l-3.426,9.078c-0.339,0.897-0.736,1.534-1.19,1.91
			c-0.453,0.375-1.01,0.563-1.669,0.563c-0.369,0-0.732-0.041-1.092-0.123v-0.967c0.267,0.058,0.565,0.087,0.895,0.087
			c0.829,0,1.42-0.466,1.775-1.397l0.443-1.135L113.466,19.127z"/>
	</g>
	<g>
		<path fill="#FFFFFF" d="M76.455,19.868c0.383,0.317,1.184,0.984,1.184,2.251c0,1.233-0.7,1.818-1.401,2.367
			c-0.217,0.216-0.467,0.451-0.467,0.818c0,0.366,0.25,0.566,0.434,0.717l0.601,0.466c0.734,0.617,1.4,1.185,1.4,2.336
			c0,1.567-1.518,3.151-4.385,3.151c-2.418,0-3.585-1.15-3.585-2.385c0-0.6,0.299-1.45,1.284-2.034
			c1.033-0.634,2.435-0.716,3.185-0.767c-0.234-0.3-0.5-0.617-0.5-1.133c0-0.283,0.084-0.45,0.167-0.651
			c-0.184,0.017-0.367,0.033-0.534,0.033c-1.767,0-2.767-1.317-2.767-2.617c0-0.767,0.351-1.618,1.067-2.235
			c0.951-0.784,2.085-0.917,2.986-0.917h3.434l-1.067,0.6H76.455z M75.271,27.272c-0.133-0.017-0.217-0.017-0.383-0.017
			c-0.15,0-1.052,0.034-1.751,0.268c-0.367,0.132-1.434,0.533-1.434,1.717c0,1.183,1.151,2.035,2.935,2.035
			c1.6,0,2.451-0.769,2.451-1.802C77.089,28.621,76.538,28.173,75.271,27.272z M75.754,24.104c0.383-0.384,0.416-0.917,0.416-1.217
			c0-1.2-0.717-3.068-2.1-3.068c-0.434,0-0.9,0.217-1.167,0.551c-0.283,0.35-0.367,0.8-0.367,1.234c0,1.117,0.65,2.968,2.085,2.968
			C75.037,24.571,75.487,24.37,75.754,24.104z"/>
		<path fill="#FFFFFF" d="M65.957,27.005c-2.647,0-4.062-2.064-4.062-3.929c0-2.181,1.781-4.045,4.312-4.045
			c2.446,0,3.978,1.914,3.978,3.929C70.186,24.923,68.671,27.005,65.957,27.005z M68.038,25.657c0.4-0.533,0.5-1.199,0.5-1.849
			c0-1.465-0.699-4.262-2.764-4.262c-0.549,0-1.098,0.217-1.498,0.567c-0.649,0.582-0.767,1.315-0.767,2.031
			c0,1.647,0.816,4.36,2.831,4.36C66.99,26.505,67.656,26.189,68.038,25.657z"/>
		<path fill="#FFFFFF" d="M56.934,27.005c-2.647,0-4.062-2.064-4.062-3.929c0-2.181,1.782-4.045,4.312-4.045
			c2.447,0,3.979,1.914,3.979,3.929C61.162,24.923,59.648,27.005,56.934,27.005z M59.015,25.657c0.4-0.533,0.5-1.199,0.5-1.849
			c0-1.465-0.7-4.262-2.764-4.262c-0.549,0-1.099,0.217-1.498,0.567c-0.649,0.582-0.766,1.315-0.766,2.031
			c0,1.647,0.815,4.36,2.831,4.36C57.967,26.505,58.632,26.189,59.015,25.657z"/>
		<path fill="#FFFFFF" d="M51.6,26.744l-2.394,0.552c-0.971,0.151-1.841,0.284-2.761,0.284c-4.62,0-6.377-3.398-6.377-6.059
			c0-3.247,2.493-6.259,6.762-6.259c0.904,0,1.774,0.133,2.56,0.351c1.255,0.351,1.841,0.786,2.21,1.038l-1.39,1.322l-0.585,0.133
			l0.418-0.67c-0.569-0.552-1.607-1.572-3.582-1.572c-2.645,0-4.637,2.009-4.637,4.938c0,3.146,2.277,6.109,5.925,6.109
			c1.072,0,1.624-0.217,2.126-0.419v-2.694l-2.527,0.134l1.338-0.72h3.549L51.8,23.63c-0.118,0.101-0.134,0.135-0.168,0.267
			c-0.017,0.151-0.033,0.637-0.033,0.804V26.744z"/>
		<path fill="#FFFFFF" d="M81.745,26.262c-0.553-0.05-0.668-0.15-0.668-0.804v-0.184v-9.289c0.003-0.036,0.006-0.073,0.009-0.108
			c0.068-0.585,0.235-0.686,0.754-0.988h-2.394l-1.256,0.603h1.28V15.5l-0.001-0.006v9.78v0.553c0,0.334-0.066,0.385-0.452,0.887
			h2.963l0.619-0.367C82.315,26.312,82.03,26.296,81.745,26.262z"/>
		<path fill="#FFFFFF" d="M88.556,26.416c-0.182,0.1-0.365,0.217-0.547,0.299c-0.55,0.249-1.115,0.316-1.614,0.316
			c-0.531,0-1.362-0.034-2.211-0.649c-1.179-0.832-1.695-2.261-1.695-3.508c0-2.576,2.094-3.839,3.806-3.839
			c0.598,0,1.214,0.149,1.713,0.466c0.83,0.547,1.046,1.262,1.162,1.645l-3.905,1.58l-1.28,0.1c0.415,2.111,1.844,3.34,3.424,3.34
			c0.848,0,1.463-0.299,2.028-0.581L88.556,26.416z M86.994,21.462c0.315-0.116,0.482-0.216,0.482-0.448
			c0-0.665-0.748-1.43-1.646-1.43c-0.666,0-1.911,0.516-1.911,2.311c0,0.283,0.033,0.582,0.051,0.882L86.994,21.462z"/>
		<g>
			<path fill="#FFFFFF" d="M90.16,19.15v1.097h-0.133V19.15h-0.363v-0.114h0.859v0.114H90.16z"/>
			<path fill="#FFFFFF" d="M91.655,20.247v-1.107h-0.006l-0.338,1.107h-0.104l-0.341-1.107h-0.004v1.107h-0.121v-1.21h0.207
				l0.308,0.978h0.004l0.304-0.978h0.21v1.21H91.655z"/>
		</g>
	</g>
	<g>
		<path fill="#FFFFFF" d="M43.392,12.003H42.56c0-0.114-0.079-0.438-0.237-0.972h-1.201c-0.163,0.525-0.244,0.849-0.244,0.972
			h-0.782c0-0.068,0.202-0.622,0.607-1.663c0.404-1.041,0.607-1.615,0.607-1.721h0.982c0,0.099,0.183,0.664,0.55,1.696
			C43.209,11.347,43.392,11.91,43.392,12.003z M42.191,10.535c-0.296-0.894-0.444-1.377-0.444-1.45h-0.042
			c0,0.068-0.153,0.551-0.46,1.45H42.191z"/>
		<path fill="#FFFFFF" d="M46.743,12.003h-0.642c0-0.071-0.238-0.446-0.715-1.125c-0.499-0.716-0.783-1.205-0.852-1.468h-0.042
			c0.043,0.379,0.065,0.723,0.065,1.029c0,0.428,0.012,0.95,0.036,1.565h-0.639c0.026-0.537,0.039-1.127,0.039-1.77
			c0-0.632-0.013-1.17-0.039-1.614h0.772c0,0.092,0.214,0.458,0.642,1.099c0.456,0.681,0.717,1.143,0.785,1.385h0.039
			c-0.042-0.386-0.062-0.733-0.062-1.04c0-0.469-0.012-0.951-0.036-1.445h0.65c-0.024,0.43-0.036,0.968-0.036,1.614
			C46.707,10.885,46.719,11.475,46.743,12.003z"/>
		<path fill="#FFFFFF" d="M50.51,10.194c0,0.492-0.158,0.922-0.473,1.289c-0.315,0.367-0.757,0.551-1.326,0.551
			c-0.256,0-0.61-0.01-1.06-0.031c0.022-0.523,0.034-1.113,0.034-1.77c0-0.631-0.011-1.169-0.034-1.614h0.455
			c0.074,0,0.185-0.003,0.333-0.008c0.147-0.005,0.243-0.008,0.288-0.008c0.625,0,1.079,0.156,1.361,0.468
			C50.369,9.384,50.51,9.758,50.51,10.194z M49.801,10.306c0-0.333-0.097-0.613-0.291-0.841c-0.194-0.228-0.49-0.342-0.889-0.342
			c-0.075,0-0.177,0.008-0.307,0.023c0.017,0.347,0.026,0.709,0.026,1.086c0,0.414,0.009,0.825,0.026,1.232
			c0.113,0.023,0.225,0.034,0.338,0.034c0.373,0,0.648-0.116,0.828-0.347C49.711,10.921,49.801,10.639,49.801,10.306z"/>
		<path fill="#FFFFFF" d="M53.984,12.003h-0.769c-0.201-0.613-0.355-0.992-0.463-1.136c-0.107-0.144-0.281-0.216-0.52-0.216
			c-0.101,0-0.197,0.001-0.288,0.003c0,0.445,0.008,0.895,0.023,1.349h-0.723c0.022-0.523,0.034-1.113,0.034-1.77
			c0-0.631-0.011-1.169-0.034-1.614h0.45c0.052,0,0.161-0.003,0.326-0.008c0.165-0.005,0.318-0.008,0.459-0.008
			c0.795,0,1.193,0.272,1.193,0.816c0,0.431-0.227,0.732-0.681,0.902v0.039c0.175,0.049,0.328,0.185,0.46,0.409
			C53.582,10.995,53.76,11.406,53.984,12.003z M53.009,9.612c0-0.345-0.222-0.517-0.665-0.517c-0.163,0-0.307,0.012-0.431,0.036
			c0.019,0.269,0.029,0.619,0.029,1.05c0.095,0.004,0.176,0.005,0.242,0.005C52.733,10.187,53.009,9.995,53.009,9.612z"/>
		<path fill="#FFFFFF" d="M57.709,10.249c0,0.532-0.163,0.973-0.489,1.323c-0.326,0.35-0.729,0.525-1.209,0.525
			c-0.457,0-0.84-0.161-1.149-0.482c-0.308-0.321-0.463-0.73-0.463-1.225c0-0.532,0.163-0.973,0.489-1.323
			c0.326-0.35,0.729-0.525,1.209-0.525c0.457,0,0.84,0.16,1.149,0.481C57.555,9.343,57.709,9.752,57.709,10.249z M56.992,10.324
			c0-0.362-0.093-0.656-0.278-0.881c-0.185-0.225-0.414-0.338-0.686-0.338c-0.253,0-0.468,0.114-0.645,0.34
			c-0.177,0.227-0.265,0.514-0.265,0.86c0,0.36,0.093,0.654,0.279,0.88c0.186,0.226,0.415,0.339,0.685,0.339
			c0.253,0,0.468-0.114,0.645-0.342C56.903,10.956,56.992,10.669,56.992,10.324z"/>
		<path fill="#FFFFFF" d="M59.179,12.003h-0.736c0.022-0.537,0.034-1.127,0.034-1.77c0-0.632-0.011-1.17-0.034-1.614h0.736
			c-0.023,0.437-0.034,0.975-0.034,1.614C59.145,10.887,59.156,11.477,59.179,12.003z"/>
		<path fill="#FFFFFF" d="M62.946,10.194c0,0.492-0.158,0.922-0.473,1.289c-0.315,0.367-0.757,0.551-1.325,0.551
			c-0.256,0-0.61-0.01-1.06-0.031c0.022-0.523,0.034-1.113,0.034-1.77c0-0.631-0.011-1.169-0.034-1.614h0.455
			c0.074,0,0.185-0.003,0.333-0.008c0.147-0.005,0.243-0.008,0.288-0.008c0.625,0,1.079,0.156,1.361,0.468
			C62.805,9.384,62.946,9.758,62.946,10.194z M62.236,10.306c0-0.333-0.097-0.613-0.291-0.841c-0.194-0.228-0.49-0.342-0.889-0.342
			c-0.075,0-0.177,0.008-0.307,0.023c0.017,0.347,0.026,0.709,0.026,1.086c0,0.414,0.009,0.825,0.026,1.232
			c0.113,0.023,0.225,0.034,0.338,0.034c0.373,0,0.648-0.116,0.828-0.347C62.147,10.921,62.236,10.639,62.236,10.306z"/>
		<path fill="#FFFFFF" d="M67.943,12.003h-0.832c0-0.114-0.079-0.438-0.237-0.972h-1.201c-0.163,0.525-0.244,0.849-0.244,0.972
			h-0.782c0-0.068,0.202-0.622,0.607-1.663c0.405-1.041,0.607-1.615,0.607-1.721h0.982c0,0.099,0.183,0.664,0.55,1.696
			C67.76,11.347,67.943,11.91,67.943,12.003z M66.743,10.535c-0.296-0.894-0.445-1.377-0.445-1.45h-0.042
			c0,0.068-0.153,0.551-0.46,1.45H66.743z"/>
		<path fill="#FFFFFF" d="M70.975,9.506c0,0.414-0.154,0.72-0.461,0.917c-0.307,0.198-0.685,0.296-1.132,0.296
			c-0.082,0-0.139-0.002-0.174-0.005c0,0.326,0.009,0.755,0.029,1.289h-0.73c0.022-0.501,0.034-1.091,0.034-1.77
			c0-0.624-0.011-1.162-0.034-1.614h0.452c0.064,0,0.187-0.003,0.369-0.008c0.182-0.005,0.34-0.008,0.473-0.008
			c0.329,0,0.607,0.075,0.834,0.224C70.862,8.976,70.975,9.203,70.975,9.506z M70.305,9.649c0-0.371-0.246-0.556-0.738-0.556
			c-0.123,0-0.253,0.013-0.39,0.039c0.019,0.327,0.029,0.698,0.029,1.112c0.043,0.004,0.094,0.005,0.151,0.005
			C69.988,10.249,70.305,10.049,70.305,9.649z"/>
		<path fill="#FFFFFF" d="M74.092,9.506c0,0.414-0.154,0.72-0.461,0.917c-0.308,0.198-0.685,0.296-1.132,0.296
			c-0.082,0-0.139-0.002-0.174-0.005c0,0.326,0.009,0.755,0.029,1.289h-0.73c0.022-0.501,0.034-1.091,0.034-1.77
			c0-0.624-0.011-1.162-0.034-1.614h0.452c0.064,0,0.187-0.003,0.369-0.008c0.182-0.005,0.34-0.008,0.473-0.008
			c0.329,0,0.607,0.075,0.834,0.224C73.979,8.976,74.092,9.203,74.092,9.506z M73.422,9.649c0-0.371-0.246-0.556-0.738-0.556
			c-0.123,0-0.253,0.013-0.39,0.039c0.019,0.327,0.029,0.698,0.029,1.112c0.043,0.004,0.094,0.005,0.151,0.005
			C73.106,10.249,73.422,10.049,73.422,9.649z"/>
		<path fill="#FFFFFF" d="M79.189,10.249c0,0.532-0.163,0.973-0.489,1.323c-0.326,0.35-0.729,0.525-1.209,0.525
			c-0.457,0-0.84-0.161-1.149-0.482c-0.308-0.321-0.463-0.73-0.463-1.225c0-0.532,0.163-0.973,0.489-1.323
			c0.326-0.35,0.729-0.525,1.209-0.525c0.457,0,0.84,0.16,1.149,0.481C79.034,9.343,79.189,9.752,79.189,10.249z M78.471,10.324
			c0-0.362-0.093-0.656-0.278-0.881c-0.185-0.225-0.414-0.338-0.686-0.338c-0.253,0-0.468,0.114-0.645,0.34
			c-0.177,0.227-0.265,0.514-0.265,0.86c0,0.36,0.093,0.654,0.28,0.88c0.186,0.226,0.414,0.339,0.685,0.339
			c0.253,0,0.468-0.114,0.645-0.342C78.383,10.956,78.471,10.669,78.471,10.324z"/>
		<path fill="#FFFFFF" d="M82.712,12.003H82.07c0-0.071-0.238-0.446-0.715-1.125c-0.499-0.716-0.783-1.205-0.852-1.468h-0.042
			c0.043,0.379,0.065,0.723,0.065,1.029c0,0.428,0.012,0.95,0.036,1.565h-0.639c0.026-0.537,0.039-1.127,0.039-1.77
			c0-0.632-0.013-1.17-0.039-1.614h0.772c0,0.092,0.214,0.458,0.642,1.099c0.456,0.681,0.717,1.143,0.785,1.385h0.039
			c-0.042-0.386-0.062-0.733-0.062-1.04c0-0.469-0.012-0.951-0.036-1.445h0.65c-0.024,0.43-0.036,0.968-0.036,1.614
			C82.675,10.885,82.687,11.475,82.712,12.003z"/>
	</g>
</g>
</svg>
