<?xml version="1.0" encoding="utf-8"?>
<!-- Generator: Adobe Illustrator 17.0.0, SVG Export Plug-In . SVG Version: 6.00 Build 0)  -->
<!DOCTYPE svg PUBLIC "-//W3C//DTD SVG 1.1//EN" "http://www.w3.org/Graphics/SVG/1.1/DTD/svg11.dtd">
<svg version="1.1" id="Layer_1" xmlns="http://www.w3.org/2000/svg" xmlns:xlink="http://www.w3.org/1999/xlink" x="0px" y="0px"
	 width="69px" height="69px" viewBox="0 0 69 69" enable-background="new 0 0 69 69" xml:space="preserve">
<g>
	<path fill="#FFFFFF" d="M63.78,3.566H4.914c-2.968,0-5.383,2.415-5.383,5.383v34.883c0,2.968,2.415,5.383,5.383,5.383h21.802
		c0.564,0,1.022-0.458,1.022-1.022c0-0.564-0.458-1.022-1.022-1.022H4.914c-1.841,0-3.339-1.498-3.339-3.339V8.949
		c0-1.841,1.498-3.339,3.339-3.339H63.78c1.841,0,3.339,1.498,3.339,3.339v34.883c0,0.565,0.458,1.022,1.022,1.022
		c0.564,0,1.022-0.457,1.022-1.022V8.949C69.162,5.981,66.748,3.566,63.78,3.566L63.78,3.566z M63.78,3.566"/>
	<path fill="#FFFFFF" d="M27.806,39.54H8.184c-0.564,0-1.022,0.458-1.022,1.022c0,0.564,0.458,1.022,1.022,1.022h19.622
		c0.564,0,1.022-0.458,1.022-1.022C28.828,39.997,28.37,39.54,27.806,39.54L27.806,39.54z M27.806,39.54"/>
	<path fill="#FFFFFF" d="M20.108,20.94v-4.361c0-1.765-1.437-3.202-3.202-3.202h-6.54c-1.766,0-3.202,1.436-3.202,3.202v4.361
		c0,1.766,1.436,3.202,3.202,3.202h6.54C18.671,24.142,20.108,22.706,20.108,20.94L20.108,20.94z M9.206,20.94v-1.158h1.158
		c0.564,0,1.022-0.458,1.022-1.022c0-0.564-0.458-1.022-1.022-1.022H9.206v-1.158c0-0.638,0.52-1.158,1.158-1.158h2.248v6.677
		h-2.248C9.726,22.098,9.206,21.579,9.206,20.94L9.206,20.94z M16.905,22.098h-2.248v-6.677h2.248c0.639,0,1.158,0.52,1.158,1.158
		v1.158h-1.158c-0.564,0-1.022,0.458-1.022,1.022c0,0.564,0.458,1.022,1.022,1.022h1.158v1.158
		C18.064,21.579,17.544,22.098,16.905,22.098L16.905,22.098z M16.905,22.098"/>
	<path fill="#FFFFFF" d="M7.162,34.021c0,0.564,0.458,1.022,1.022,1.022c0.564,0,1.022-0.458,1.022-1.022v-2.18
		c0-0.564-0.458-1.022-1.022-1.022c-0.564,0-1.022,0.458-1.022,1.022V34.021z M7.162,34.021"/>
	<path fill="#FFFFFF" d="M10.433,31.841v2.18c0,0.564,0.458,1.022,1.022,1.022c0.564,0,1.022-0.458,1.022-1.022v-2.18
		c0-0.564-0.458-1.022-1.022-1.022C10.89,30.819,10.433,31.277,10.433,31.841L10.433,31.841z M10.433,31.841"/>
	<path fill="#FFFFFF" d="M13.703,31.841v2.18c0,0.564,0.458,1.022,1.022,1.022c0.564,0,1.022-0.458,1.022-1.022v-2.18
		c0-0.564-0.458-1.022-1.022-1.022C14.161,30.819,13.703,31.277,13.703,31.841L13.703,31.841z M13.703,31.841"/>
	<path fill="#FFFFFF" d="M16.973,31.841v2.18c0,0.564,0.458,1.022,1.022,1.022c0.565,0,1.022-0.458,1.022-1.022v-2.18
		c0-0.564-0.457-1.022-1.022-1.022C17.431,30.819,16.973,31.277,16.973,31.841L16.973,31.841z M16.973,31.841"/>
	<path fill="#FFFFFF" d="M23.378,34.021v-2.18c0-0.564-0.458-1.022-1.022-1.022s-1.022,0.458-1.022,1.022v2.18
		c0,0.564,0.458,1.022,1.022,1.022S23.378,34.585,23.378,34.021L23.378,34.021z M23.378,34.021"/>
	<path fill="#FFFFFF" d="M26.648,34.021v-2.18c0-0.564-0.458-1.022-1.022-1.022c-0.564,0-1.022,0.458-1.022,1.022v2.18
		c0,0.564,0.458,1.022,1.022,1.022C26.19,35.043,26.648,34.585,26.648,34.021L26.648,34.021z M26.648,34.021"/>
	<path fill="#FFFFFF" d="M28.896,30.819c-0.564,0-1.022,0.458-1.022,1.022v2.18c0,0.564,0.458,1.022,1.022,1.022
		c0.565,0,1.022-0.458,1.022-1.022v-2.18C29.918,31.277,29.461,30.819,28.896,30.819L28.896,30.819z M28.896,30.819"/>
	<path fill="#FFFFFF" d="M33.189,34.021v-2.18c0-0.564-0.458-1.022-1.022-1.022c-0.565,0-1.022,0.458-1.022,1.022v2.18
		c0,0.564,0.457,1.022,1.022,1.022C32.731,35.043,33.189,34.585,33.189,34.021L33.189,34.021z M33.189,34.021"/>
	<path fill="#FFFFFF" d="M56.149,24.142c2.968,0,5.383-2.415,5.383-5.383c0-2.967-2.415-5.382-5.383-5.382h-6.54
		c-2.968,0-5.383,2.414-5.383,5.382c0,2.968,2.415,5.383,5.383,5.383H56.149z M46.27,18.759c0-1.84,1.498-3.338,3.339-3.338h6.54
		c1.841,0,3.339,1.498,3.339,3.338c0,1.841-1.498,3.339-3.339,3.339h-6.54C47.767,22.098,46.27,20.6,46.27,18.759L46.27,18.759z
		 M46.27,18.759"/>
	<path fill="#FFFFFF" d="M47.428,30.819c-9.58,0-17.374,7.794-17.374,17.374s7.794,17.374,17.374,17.374s17.374-7.794,17.374-17.374
		S57.008,30.819,47.428,30.819L47.428,30.819z M47.428,63.522c-8.453,0-15.33-6.877-15.33-15.33s6.877-15.33,15.33-15.33
		c8.453,0,15.33,6.877,15.33,15.33S55.881,63.522,47.428,63.522L47.428,63.522z M47.428,63.522"/>
	<path fill="#FFFFFF" d="M55.782,39.839c-0.399-0.399-1.046-0.399-1.445,0L39.075,55.101c-0.399,0.399-0.399,1.046,0,1.445
		c0.2,0.2,0.461,0.299,0.723,0.299c0.262,0,0.524-0.1,0.723-0.299l15.262-15.262C56.181,40.886,56.181,40.238,55.782,39.839
		L55.782,39.839z M55.782,39.839"/>
	<path fill="#FFFFFF" d="M42.522,47.034c2.668,0,4.838-2.17,4.838-4.837s-2.17-4.838-4.838-4.838c-2.667,0-4.837,2.171-4.837,4.838
		S39.855,47.034,42.522,47.034L42.522,47.034z M42.522,39.403c1.54,0,2.794,1.254,2.794,2.794c0,1.54-1.254,2.793-2.794,2.793
		c-1.54,0-2.793-1.253-2.793-2.793C39.729,40.657,40.982,39.403,42.522,39.403L42.522,39.403z M42.522,39.403"/>
	<path fill="#FFFFFF" d="M53.423,48.26c-2.667,0-4.837,2.171-4.837,4.838c0,2.667,2.17,4.837,4.837,4.837
		c2.668,0,4.838-2.17,4.838-4.837C58.261,50.431,56.091,48.26,53.423,48.26L53.423,48.26z M53.423,55.891
		c-1.54,0-2.793-1.253-2.793-2.793c0-1.54,1.253-2.794,2.793-2.794c1.54,0,2.794,1.254,2.794,2.794
		C56.217,54.638,54.964,55.891,53.423,55.891L53.423,55.891z M53.423,55.891"/>
</g>
</svg>
