<?xml version="1.0" encoding="utf-8"?>
<!-- Generator: Adobe Illustrator 17.0.0, SVG Export Plug-In . SVG Version: 6.00 Build 0)  -->
<!DOCTYPE svg PUBLIC "-//W3C//DTD SVG 1.1//EN" "http://www.w3.org/Graphics/SVG/1.1/DTD/svg11.dtd">
<svg version="1.1" id="Layer_1" xmlns="http://www.w3.org/2000/svg" xmlns:xlink="http://www.w3.org/1999/xlink" x="0px" y="0px"
	 width="69px" height="69px" viewBox="0 0 69 69" enable-background="new 0 0 69 69" xml:space="preserve">
<g>
	<path fill="#858585" d="M63.369,3.897H5.631c-2.911,0-5.28,2.369-5.28,5.28v34.215c0,2.911,2.369,5.28,5.28,5.28h21.385
		c0.553,0,1.002-0.449,1.002-1.002s-0.449-1.002-1.002-1.002H5.631c-1.806,0-3.275-1.469-3.275-3.275V9.176
		c0-1.806,1.469-3.275,3.275-3.275h57.739c1.806,0,3.275,1.469,3.275,3.275v34.215c0,0.554,0.449,1.002,1.002,1.002
		c0.553,0,1.002-0.448,1.002-1.002V9.176C68.648,6.265,66.281,3.897,63.369,3.897L63.369,3.897z"/>
	<path fill="#858585" d="M28.084,39.182H8.838c-0.553,0-1.002,0.449-1.002,1.002s0.449,1.002,1.002,1.002h19.246
		c0.553,0,1.002-0.449,1.002-1.002C29.087,39.63,28.637,39.182,28.084,39.182L28.084,39.182z"/>
	<path fill="#858585" d="M20.534,20.938V16.66c0-1.731-1.409-3.141-3.141-3.141h-6.415c-1.732,0-3.141,1.409-3.141,3.141v4.277
		c0,1.732,1.409,3.141,3.141,3.141h6.415C19.124,24.079,20.534,22.67,20.534,20.938L20.534,20.938z M9.84,20.938v-1.136h1.136
		c0.553,0,1.002-0.449,1.002-1.002c0-0.553-0.449-1.002-1.002-1.002H9.84v-1.136c0-0.626,0.51-1.136,1.136-1.136h2.205v6.549h-2.205
		C10.35,22.074,9.84,21.565,9.84,20.938L9.84,20.938z M17.392,22.074h-2.205v-6.549h2.205c0.627,0,1.136,0.51,1.136,1.136v1.136
		h-1.136c-0.553,0-1.002,0.449-1.002,1.002c0,0.553,0.449,1.002,1.002,1.002h1.136v1.136C18.529,21.565,18.019,22.074,17.392,22.074
		L17.392,22.074z"/>
	<path fill="#858585" d="M7.836,33.768c0,0.553,0.449,1.002,1.002,1.002c0.553,0,1.002-0.449,1.002-1.002V31.63
		c0-0.553-0.449-1.002-1.002-1.002s-1.002,0.449-1.002,1.002V33.768z"/>
	<path fill="#858585" d="M11.044,31.63v2.138c0,0.553,0.449,1.002,1.002,1.002c0.553,0,1.002-0.449,1.002-1.002V31.63
		c0-0.553-0.449-1.002-1.002-1.002C11.492,30.628,11.044,31.077,11.044,31.63L11.044,31.63z"/>
	<path fill="#858585" d="M14.251,31.63v2.138c0,0.553,0.449,1.002,1.002,1.002s1.002-0.449,1.002-1.002V31.63
		c0-0.553-0.449-1.002-1.002-1.002S14.251,31.077,14.251,31.63L14.251,31.63z"/>
	<path fill="#858585" d="M17.459,31.63v2.138c0,0.553,0.449,1.002,1.002,1.002c0.554,0,1.002-0.449,1.002-1.002V31.63
		c0-0.553-0.448-1.002-1.002-1.002C17.908,30.628,17.459,31.077,17.459,31.63L17.459,31.63z"/>
	<path fill="#858585" d="M23.741,33.768V31.63c0-0.553-0.449-1.002-1.002-1.002s-1.002,0.449-1.002,1.002v2.138
		c0,0.553,0.449,1.002,1.002,1.002S23.741,34.322,23.741,33.768L23.741,33.768z"/>
	<path fill="#858585" d="M26.948,33.768V31.63c0-0.553-0.449-1.002-1.002-1.002c-0.553,0-1.002,0.449-1.002,1.002v2.138
		c0,0.553,0.449,1.002,1.002,1.002C26.499,34.771,26.948,34.322,26.948,33.768L26.948,33.768z"/>
	<path fill="#858585" d="M29.153,30.628c-0.553,0-1.002,0.449-1.002,1.002v2.138c0,0.553,0.449,1.002,1.002,1.002
		c0.554,0,1.002-0.449,1.002-1.002V31.63C30.156,31.077,29.708,30.628,29.153,30.628L29.153,30.628z"/>
	<path fill="#858585" d="M33.364,33.768V31.63c0-0.553-0.449-1.002-1.002-1.002c-0.554,0-1.002,0.449-1.002,1.002v2.138
		c0,0.553,0.448,1.002,1.002,1.002C32.915,34.771,33.364,34.322,33.364,33.768L33.364,33.768z"/>
	<path fill="#858585" d="M55.885,24.079c2.911,0,5.28-2.369,5.28-5.28c0-2.91-2.369-5.279-5.28-5.279H49.47
		c-2.911,0-5.28,2.368-5.28,5.279s2.369,5.28,5.28,5.28H55.885z M46.195,18.799c0-1.805,1.469-3.274,3.275-3.274h6.415
		c1.806,0,3.275,1.469,3.275,3.274c0,1.806-1.469,3.275-3.275,3.275H49.47C47.663,22.074,46.195,20.604,46.195,18.799L46.195,18.799
		z"/>
	<path fill="#858585" d="M47.331,30.628c-9.397,0-17.041,7.645-17.041,17.041S37.934,64.71,47.331,64.71s17.041-7.645,17.041-17.041
		S56.727,30.628,47.331,30.628L47.331,30.628z M47.331,62.705c-8.291,0-15.036-6.745-15.036-15.036s6.745-15.036,15.036-15.036
		s15.036,6.745,15.036,15.036S55.622,62.705,47.331,62.705L47.331,62.705z"/>
	<path fill="#858585" d="M55.525,39.475c-0.391-0.391-1.026-0.391-1.417,0l-14.97,14.97c-0.391,0.391-0.391,1.026,0,1.417
		c0.196,0.196,0.452,0.293,0.709,0.293s0.514-0.098,0.709-0.293l14.97-14.97C55.916,40.502,55.916,39.866,55.525,39.475
		L55.525,39.475z"/>
	<path fill="#858585" d="M42.518,46.532c2.617,0,4.745-2.128,4.745-4.744s-2.128-4.745-4.745-4.745
		c-2.616,0-4.744,2.129-4.744,4.745S39.903,46.532,42.518,46.532L42.518,46.532z M42.518,39.047c1.511,0,2.741,1.23,2.741,2.74
		c0,1.511-1.23,2.74-2.741,2.74s-2.74-1.229-2.74-2.74C39.779,40.277,41.008,39.047,42.518,39.047L42.518,39.047z"/>
	<path fill="#858585" d="M53.211,47.735c-2.616,0-4.744,2.129-4.744,4.745c0,2.616,2.128,4.744,4.744,4.744
		c2.617,0,4.745-2.128,4.745-4.744C57.956,49.864,55.828,47.735,53.211,47.735L53.211,47.735z M53.211,55.22
		c-1.511,0-2.74-1.229-2.74-2.74c0-1.511,1.229-2.74,2.74-2.74s2.74,1.23,2.74,2.74C55.951,53.991,54.722,55.22,53.211,55.22
		L53.211,55.22z"/>
</g>
</svg>
