<?xml version="1.0" encoding="utf-8"?>
<!-- Generator: Adobe Illustrator 17.0.0, SVG Export Plug-In . SVG Version: 6.00 Build 0)  -->
<!DOCTYPE svg PUBLIC "-//W3C//DTD SVG 1.1//EN" "http://www.w3.org/Graphics/SVG/1.1/DTD/svg11.dtd">
<svg version="1.1" id="Layer_1" xmlns="http://www.w3.org/2000/svg" xmlns:xlink="http://www.w3.org/1999/xlink" x="0px" y="0px"
	 width="69px" height="69px" viewBox="0 0 69 69" enable-background="new 0 0 69 69" xml:space="preserve">
<g>
	<g>
		<defs>
			<rect id="SVGID_1_" x="4.857" y="1.103" width="60" height="68"/>
		</defs>
		<clipPath id="SVGID_2_">
			<use xlink:href="#SVGID_1_"  overflow="visible"/>
		</clipPath>
		<path clip-path="url(#SVGID_2_)" fill="#868686" d="M30.528,29.78c0.222,0.283,0.559,0.431,0.901,0.431
			c0.237,0,0.477-0.071,0.68-0.22c0.497-0.362,0.595-1.043,0.219-1.52l-10.85-13.788c-0.978-1.243-1.495-2.727-1.495-4.29
			c0-3.926,3.321-7.119,7.404-7.119c4.042,0,7.33,3.162,7.33,7.048c0,0.6,0.505,1.085,1.129,1.085c0.624,0,1.129-0.485,1.129-1.085
			c0-1.364-0.312-2.659-0.868-3.826c1.362-2,3.689-3.223,6.194-3.223c4.083,0,7.404,3.194,7.404,7.119
			c0,1.563-0.517,3.047-1.496,4.29L37.358,28.471c-0.376,0.478-0.278,1.159,0.22,1.52c0.204,0.148,0.442,0.22,0.68,0.22
			c0.342,0,0.679-0.148,0.901-0.431l10.85-13.788c1.278-1.623,1.953-3.56,1.953-5.6c0-5.122-4.333-9.289-9.661-9.289
			c-2.923,0-5.658,1.276-7.475,3.41c-1.76-2.079-4.44-3.41-7.439-3.41c-5.327,0-9.661,4.167-9.661,9.289
			c0,2.04,0.676,3.977,1.954,5.6L30.528,29.78z M30.528,29.78"/>
		<path clip-path="url(#SVGID_2_)" fill="#868686" d="M64.68,42.997l-6.019-10.072c-0.201-0.337-0.575-0.544-0.979-0.544H12.005
			c-0.404,0-0.777,0.208-0.979,0.544L5.007,42.997c-0.201,0.336-0.2,0.749,0.002,1.084c0.201,0.335,0.574,0.541,0.976,0.541h22.839
			c0.404,0,0.777-0.208,0.979-0.544l3.912-6.546v29.4H13.133V47.878c0-0.599-0.506-1.085-1.129-1.085
			c-0.623,0-1.129,0.486-1.129,1.085v20.139c0,0.599,0.506,1.085,1.129,1.085h45.677c0.623,0,1.129-0.486,1.129-1.085V44.623h4.89
			c0.403,0,0.775-0.206,0.976-0.541C64.879,43.746,64.88,43.333,64.68,42.997L64.68,42.997z M28.171,42.453H7.936l4.722-7.901
			h20.236L28.171,42.453z M56.554,66.933H35.972v-29.4l3.912,6.546c0.201,0.336,0.574,0.544,0.979,0.544h15.691V66.933z
			 M41.515,42.453l-4.722-7.901h20.236l4.722,7.901H41.515z M41.515,42.453"/>
	</g>
</g>
</svg>
