<?xml version="1.0" encoding="utf-8"?>
<!-- Generator: Adobe Illustrator 17.0.0, SVG Export Plug-In . SVG Version: 6.00 Build 0)  -->
<!DOCTYPE svg PUBLIC "-//W3C//DTD SVG 1.1//EN" "http://www.w3.org/Graphics/SVG/1.1/DTD/svg11.dtd">
<svg version="1.1" id="Layer_1" xmlns="http://www.w3.org/2000/svg" xmlns:xlink="http://www.w3.org/1999/xlink" x="0px" y="0px"
	 width="69px" height="69px" viewBox="0 0 69 69" enable-background="new 0 0 69 69" xml:space="preserve">
<g>
	<path fill="#868686" d="M63.006,58.666V29.988c1.186-1.054,1.929-2.594,1.929-4.301l-0.02-21.62H5.322L5.29,25.687
		c0,1.66,0.702,3.157,1.825,4.217v28.762H4.731v6.4h60.557v-6.4H63.006z M7.278,6.022h55.685v5.715H7.278V6.022z M62.979,13.687
		v11.999c0,2.108-1.718,3.832-3.833,3.832c-2.108,0-3.827-1.723-3.827-3.832V13.687H62.979z M53.364,13.687v11.999
		c0,2.108-1.718,3.832-3.827,3.832c-2.113,0-3.833-1.723-3.833-3.832V13.687H53.364z M43.748,13.687v11.999
		c0,2.108-1.718,3.832-3.827,3.832c-2.113,0-3.833-1.723-3.833-3.832V13.687H43.748z M34.132,13.687v11.999
		c0,2.108-1.718,3.832-3.827,3.832c-2.093,0-3.8-1.692-3.833-3.779V13.687H34.132z M24.522,13.687v12.052
		c-0.031,2.086-1.74,3.779-3.833,3.779c-2.113,0-3.827-1.723-3.827-3.832V13.687H24.522z M7.24,13.687h7.666v11.999
		c0,2.108-1.718,3.832-3.833,3.832c-2.108,0-3.833-1.723-3.833-3.832V13.687z M63.333,63.111H6.687v-2.494H9.07V31.111
		c0.628,0.232,1.302,0.359,2.003,0.359c2.004,0,3.769-1.023,4.809-2.574c1.038,1.556,2.804,2.574,4.807,2.574
		c2.004,0,3.769-1.023,4.809-2.568c1.038,1.551,2.804,2.568,4.807,2.568c2.004,0,3.764-1.023,4.809-2.574
		c1.038,1.556,2.804,2.574,4.807,2.574c1.999,0,3.769-1.023,4.809-2.574c1.038,1.556,2.804,2.574,4.807,2.574
		c1.999,0,3.769-1.023,4.809-2.574c1.038,1.556,2.804,2.574,4.807,2.574c0.664,0,1.308-0.111,1.903-0.323v29.475h2.284v2.489H63.333
		z M63.333,63.111"/>
	<path fill="#868686" d="M12.317,49.034h28.31V34.853h-28.31V49.034z M14.273,36.81h24.398v10.269H14.273V36.81z M14.273,36.81"/>
	<path fill="#868686" d="M45.356,57.881h12.188V34.853H45.356V57.881z M47.312,36.81h8.277v19.116h-8.277V36.81z M47.312,36.81"/>
</g>
</svg>
