<?xml version="1.0" encoding="utf-8"?>
<!-- Generator: Adobe Illustrator 17.0.0, SVG Export Plug-In . SVG Version: 6.00 Build 0)  -->
<!DOCTYPE svg PUBLIC "-//W3C//DTD SVG 1.1//EN" "http://www.w3.org/Graphics/SVG/1.1/DTD/svg11.dtd">
<svg version="1.1" id="Layer_1" xmlns="http://www.w3.org/2000/svg" xmlns:xlink="http://www.w3.org/1999/xlink" x="0px" y="0px"
	 width="72px" height="68px" viewBox="0 0 72 68" enable-background="new 0 0 72 68" xml:space="preserve">
<g>
	<path fill="#FFFFFF" d="M65.719,2.407H5.904c-3.016,0-5.47,2.454-5.47,5.47v35.445c0,3.016,2.454,5.47,5.47,5.47h22.154
		c0.573,0,1.038-0.465,1.038-1.038c0-0.573-0.465-1.038-1.038-1.038H5.904c-1.871,0-3.393-1.522-3.393-3.393V7.876
		c0-1.871,1.522-3.393,3.393-3.393h59.815c1.871,0,3.393,1.522,3.393,3.393v35.445c0,0.574,0.465,1.038,1.038,1.038
		c0.573,0,1.038-0.464,1.038-1.038V7.876C71.189,4.86,68.735,2.407,65.719,2.407L65.719,2.407z M65.719,2.407"/>
	<path fill="#FFFFFF" d="M29.165,38.96H9.227c-0.573,0-1.038,0.465-1.038,1.038c0,0.573,0.465,1.038,1.038,1.038h19.938
		c0.573,0,1.038-0.465,1.038-1.038C30.204,39.425,29.739,38.96,29.165,38.96L29.165,38.96z M29.165,38.96"/>
	<path fill="#FFFFFF" d="M21.342,20.06v-4.431c0-1.794-1.46-3.253-3.254-3.253h-6.646c-1.794,0-3.254,1.46-3.254,3.253v4.431
		c0,1.794,1.46,3.254,3.254,3.254h6.646C19.883,23.314,21.342,21.855,21.342,20.06L21.342,20.06z M10.265,20.06v-1.177h1.177
		c0.573,0,1.038-0.465,1.038-1.038c0-0.573-0.465-1.038-1.038-1.038h-1.177v-1.177c0-0.648,0.528-1.176,1.177-1.176h2.284v6.784
		h-2.284C10.794,21.237,10.265,20.709,10.265,20.06L10.265,20.06z M18.088,21.237h-2.284v-6.784h2.284
		c0.649,0,1.177,0.528,1.177,1.176v1.177h-1.177c-0.573,0-1.038,0.465-1.038,1.038c0,0.573,0.465,1.038,1.038,1.038h1.177v1.177
		C19.265,20.709,18.737,21.237,18.088,21.237L18.088,21.237z M18.088,21.237"/>
	<path fill="#FFFFFF" d="M8.189,33.353c0,0.573,0.465,1.038,1.038,1.038c0.573,0,1.038-0.465,1.038-1.038v-2.216
		c0-0.573-0.465-1.038-1.038-1.038c-0.573,0-1.038,0.465-1.038,1.038V33.353z M8.189,33.353"/>
	<path fill="#FFFFFF" d="M11.511,31.137v2.216c0,0.573,0.465,1.038,1.038,1.038c0.573,0,1.038-0.465,1.038-1.038v-2.216
		c0-0.573-0.465-1.038-1.038-1.038C11.977,30.099,11.511,30.564,11.511,31.137L11.511,31.137z M11.511,31.137"/>
	<path fill="#FFFFFF" d="M14.834,31.137v2.216c0,0.573,0.465,1.038,1.038,1.038c0.573,0,1.038-0.465,1.038-1.038v-2.216
		c0-0.573-0.465-1.038-1.038-1.038C15.3,30.099,14.834,30.564,14.834,31.137L14.834,31.137z M14.834,31.137"/>
	<path fill="#FFFFFF" d="M18.157,31.137v2.216c0,0.573,0.465,1.038,1.038,1.038c0.574,0,1.038-0.465,1.038-1.038v-2.216
		c0-0.573-0.464-1.038-1.038-1.038C18.622,30.099,18.157,30.564,18.157,31.137L18.157,31.137z M18.157,31.137"/>
	<path fill="#FFFFFF" d="M24.665,33.353v-2.216c0-0.573-0.465-1.038-1.038-1.038s-1.038,0.465-1.038,1.038v2.216
		c0,0.573,0.465,1.038,1.038,1.038S24.665,33.926,24.665,33.353L24.665,33.353z M24.665,33.353"/>
	<path fill="#FFFFFF" d="M27.988,33.353v-2.216c0-0.573-0.465-1.038-1.038-1.038c-0.573,0-1.038,0.465-1.038,1.038v2.216
		c0,0.573,0.465,1.038,1.038,1.038C27.523,34.391,27.988,33.926,27.988,33.353L27.988,33.353z M27.988,33.353"/>
	<path fill="#FFFFFF" d="M30.273,30.099c-0.573,0-1.038,0.465-1.038,1.038v2.216c0,0.573,0.465,1.038,1.038,1.038
		c0.574,0,1.038-0.465,1.038-1.038v-2.216C31.311,30.564,30.847,30.099,30.273,30.099L30.273,30.099z M30.273,30.099"/>
	<path fill="#FFFFFF" d="M34.635,33.353v-2.216c0-0.573-0.465-1.038-1.038-1.038c-0.574,0-1.038,0.465-1.038,1.038v2.216
		c0,0.573,0.464,1.038,1.038,1.038C34.17,34.391,34.635,33.926,34.635,33.353L34.635,33.353z M34.635,33.353"/>
	<path fill="#FFFFFF" d="M57.965,23.314c3.016,0,5.47-2.454,5.47-5.47c0-3.015-2.454-5.469-5.47-5.469h-6.646
		c-3.016,0-5.47,2.453-5.47,5.469c0,3.016,2.454,5.47,5.47,5.47H57.965z M47.926,17.845c0-1.87,1.522-3.392,3.393-3.392h6.646
		c1.871,0,3.393,1.522,3.393,3.392c0,1.871-1.522,3.393-3.393,3.393h-6.646C49.448,21.237,47.926,19.716,47.926,17.845
		L47.926,17.845z M47.926,17.845"/>
	<path fill="#FFFFFF" d="M49.104,30.099c-9.734,0-17.654,7.92-17.654,17.654s7.92,17.654,17.654,17.654s17.654-7.92,17.654-17.654
		S58.838,30.099,49.104,30.099L49.104,30.099z M49.104,63.33c-8.589,0-15.577-6.988-15.577-15.577s6.988-15.577,15.577-15.577
		c8.59,0,15.577,6.988,15.577,15.577S57.693,63.33,49.104,63.33L49.104,63.33z M49.104,63.33"/>
	<path fill="#FFFFFF" d="M58.339,41.48L45.781,54.038l-5.912-5.912c-0.406-0.406-1.064-0.406-1.469,0
		c-0.406,0.406-0.406,1.064,0,1.469l6.646,6.646c0.203,0.203,0.469,0.304,0.734,0.304c0.266,0,0.531-0.101,0.734-0.304
		l13.292-13.292c0.406-0.406,0.406-1.063,0-1.468C59.402,41.074,58.744,41.074,58.339,41.48L58.339,41.48z M58.339,41.48"/>
</g>
</svg>
