<?xml version="1.0" encoding="utf-8"?>
<!-- Generator: Adobe Illustrator 17.0.0, SVG Export Plug-In . SVG Version: 6.00 Build 0)  -->
<!DOCTYPE svg PUBLIC "-//W3C//DTD SVG 1.1//EN" "http://www.w3.org/Graphics/SVG/1.1/DTD/svg11.dtd">
<svg version="1.1" id="Layer_1" xmlns="http://www.w3.org/2000/svg" xmlns:xlink="http://www.w3.org/1999/xlink" x="0px" y="0px"
	 width="69px" height="69px" viewBox="0 0 69 69" enable-background="new 0 0 69 69" xml:space="preserve">
<g>
	<g>
		<defs>
			<rect id="SVGID_1_" x="-0.153" y="0.603" width="69" height="69"/>
		</defs>
		<clipPath id="SVGID_2_">
			<use xlink:href="#SVGID_1_"  overflow="visible"/>
		</clipPath>
		<path clip-path="url(#SVGID_2_)" fill="#868686" stroke="#868686" stroke-width="1.4577" stroke-miterlimit="10" d="
			M34.279,69.468c-0.189,0-0.366-0.073-0.5-0.207l-9.598-9.598c-0.047-0.046-0.109-0.073-0.175-0.073H10.432
			c-0.39,0-0.708-0.317-0.708-0.707V45.309c0-0.067-0.025-0.129-0.073-0.175l-9.598-9.598c-0.275-0.276-0.275-0.725,0-1l9.598-9.598
			c0.046-0.046,0.073-0.108,0.073-0.175V11.189c0-0.391,0.317-0.708,0.708-0.708h13.574c0.066,0,0.128-0.025,0.175-0.073
			l9.598-9.598c0.134-0.134,0.311-0.207,0.5-0.207c0.189,0,0.367,0.073,0.501,0.207l9.598,9.598
			c0.047,0.047,0.109,0.073,0.175,0.073h13.574c0.39,0,0.708,0.317,0.708,0.708v13.573c0,0.067,0.026,0.129,0.073,0.175l9.598,9.598
			c0.275,0.276,0.275,0.725,0,1.001l-9.598,9.598c-0.046,0.047-0.073,0.109-0.073,0.175v13.574c0,0.39-0.317,0.708-0.708,0.708
			H44.552c-0.066,0-0.128,0.025-0.175,0.073l-9.598,9.598C34.646,69.395,34.468,69.468,34.279,69.468L34.279,69.468z M10.432,10.941
			c-0.136,0-0.248,0.111-0.248,0.248v13.573c0,0.189-0.073,0.367-0.207,0.5L0.379,34.86c-0.097,0.096-0.097,0.254,0,0.35
			l9.598,9.598c0.133,0.133,0.208,0.311,0.208,0.5v13.573c0,0.137,0.111,0.248,0.247,0.248h13.574c0.189,0,0.367,0.073,0.5,0.207
			l9.598,9.598c0.094,0.093,0.257,0.093,0.35,0l9.598-9.598c0.134-0.134,0.311-0.207,0.501-0.207h13.573
			c0.137,0,0.248-0.111,0.248-0.248V45.309c0-0.189,0.073-0.367,0.207-0.501l9.598-9.598c0.096-0.097,0.096-0.254,0-0.35
			l-9.598-9.598c-0.134-0.134-0.207-0.311-0.207-0.501V11.189c0-0.137-0.111-0.248-0.248-0.248H44.553
			c-0.189,0-0.367-0.073-0.5-0.207l-9.598-9.598c-0.094-0.093-0.257-0.093-0.35,0l-9.598,9.598c-0.133,0.134-0.311,0.207-0.5,0.207
			H10.432z M10.432,10.941"/>
	</g>
	<path fill="#868686" stroke="#868686" stroke-width="1.4577" stroke-miterlimit="10" d="M34.279,57.881
		c-0.145,0-0.282-0.057-0.386-0.159l-6.347-6.347c-0.016-0.016-0.038-0.025-0.061-0.025h-8.975c-0.301,0-0.546-0.245-0.546-0.546
		v-8.975c0-0.022-0.009-0.044-0.025-0.061l-6.346-6.346c-0.103-0.103-0.16-0.24-0.16-0.386c0-0.146,0.057-0.283,0.16-0.386
		l6.346-6.346c0.016-0.016,0.025-0.038,0.025-0.062v-8.975c0-0.301,0.245-0.546,0.546-0.546h8.975c0.023,0,0.044-0.009,0.061-0.025
		l6.347-6.347c0.206-0.206,0.566-0.206,0.772,0l6.347,6.347c0.016,0.016,0.038,0.025,0.061,0.025h8.975
		c0.301,0,0.546,0.245,0.546,0.546v8.975c0,0.023,0.009,0.045,0.025,0.062l6.346,6.346c0.103,0.103,0.16,0.24,0.16,0.386
		c0,0.146-0.057,0.283-0.16,0.386l-6.346,6.346c-0.016,0.016-0.025,0.038-0.025,0.061v8.975c0,0.301-0.245,0.546-0.546,0.546h-8.975
		c-0.022,0-0.045,0.01-0.061,0.025l-6.347,6.347C34.562,57.824,34.425,57.881,34.279,57.881L34.279,57.881z M18.511,19.181
		c-0.047,0-0.085,0.039-0.085,0.086v8.975c0,0.145-0.057,0.282-0.16,0.386l-6.347,6.347c-0.022,0.022-0.025,0.047-0.025,0.061
		c0,0.013,0.003,0.039,0.025,0.061l6.347,6.347c0.103,0.103,0.16,0.24,0.16,0.386v8.975c0,0.048,0.038,0.086,0.085,0.086h8.975
		c0.146,0,0.283,0.057,0.386,0.159l6.347,6.347c0.022,0.022,0.047,0.025,0.061,0.025c0.014,0,0.039-0.003,0.061-0.025l6.347-6.346
		c0.103-0.103,0.24-0.16,0.386-0.16h8.975c0.047,0,0.086-0.038,0.086-0.086v-8.975c0-0.146,0.057-0.283,0.159-0.386l6.347-6.347
		c0.022-0.022,0.025-0.047,0.025-0.061c0-0.014-0.004-0.039-0.025-0.061l-6.347-6.347c-0.103-0.103-0.159-0.24-0.159-0.386v-8.975
		c0-0.048-0.039-0.086-0.086-0.086h-8.975c-0.146,0-0.283-0.057-0.386-0.16l-6.346-6.346c-0.022-0.023-0.048-0.025-0.061-0.025
		c-0.013,0-0.039,0.003-0.061,0.025l-6.347,6.346c-0.103,0.103-0.24,0.16-0.386,0.16H18.511z M18.511,19.181"/>
	<path fill="#868686" stroke="#868686" stroke-width="0.9718" stroke-miterlimit="10" d="M34.279,41.772
		c-3.714,0-6.736-3.022-6.736-6.737c0-3.714,3.022-6.737,6.736-6.737c3.715,0,6.737,3.023,6.737,6.737
		C41.016,38.75,37.994,41.772,34.279,41.772L34.279,41.772z M34.279,28.759c-3.461,0-6.277,2.816-6.277,6.276
		c0,3.461,2.816,6.276,6.277,6.276c3.461,0,6.277-2.815,6.277-6.276C40.556,31.575,37.74,28.759,34.279,28.759L34.279,28.759z
		 M34.279,28.759"/>
</g>
</svg>
